<svg xmlns="http://www.w3.org/2000/svg" viewBox="0 0 1080 460" width="1080" height="460">
<rect width="100%" height="100%" fill="#f6f8fb"/>
<text x="28" y="38" font-family="Arial, sans-serif" font-size="28" font-weight="700" fill="#13202b">GLIM MID360 sample: position error after rigid alignment</text>
<text x="28" y="66" font-family="Arial, sans-serif" font-size="16" fill="#516679">Lower is better. Error is the 3D distance between time-matched poses after SE(3) alignment.</text>
<rect x="88" y="92" width="968" height="300" fill="#ffffff" stroke="#d8e3ef"/>
<line x1="88.00" y1="92" x2="88.00" y2="392" stroke="#e9eef4" stroke-width="1"/>
<text x="88.00" y="434" text-anchor="middle" font-family="Arial, sans-serif" font-size="13" fill="#607487">0</text>
<line x1="281.60" y1="92" x2="281.60" y2="392" stroke="#e9eef4" stroke-width="1"/>
<text x="281.60" y="434" text-anchor="middle" font-family="Arial, sans-serif" font-size="13" fill="#607487">55</text>
<line x1="475.20" y1="92" x2="475.20" y2="392" stroke="#e9eef4" stroke-width="1"/>
<text x="475.20" y="434" text-anchor="middle" font-family="Arial, sans-serif" font-size="13" fill="#607487">111</text>
<line x1="668.80" y1="92" x2="668.80" y2="392" stroke="#e9eef4" stroke-width="1"/>
<text x="668.80" y="434" text-anchor="middle" font-family="Arial, sans-serif" font-size="13" fill="#607487">166</text>
<line x1="862.40" y1="92" x2="862.40" y2="392" stroke="#e9eef4" stroke-width="1"/>
<text x="862.40" y="434" text-anchor="middle" font-family="Arial, sans-serif" font-size="13" fill="#607487">221</text>
<line x1="1056.00" y1="92" x2="1056.00" y2="392" stroke="#e9eef4" stroke-width="1"/>
<text x="1056.00" y="434" text-anchor="middle" font-family="Arial, sans-serif" font-size="13" fill="#607487">276</text>
<line x1="88" y1="392.00" x2="1056" y2="392.00" stroke="#e9eef4" stroke-width="1"/>
<text x="76" y="396.00" text-anchor="end" font-family="Arial, sans-serif" font-size="13" fill="#607487">0.0</text>
<line x1="88" y1="332.00" x2="1056" y2="332.00" stroke="#e9eef4" stroke-width="1"/>
<text x="76" y="336.00" text-anchor="end" font-family="Arial, sans-serif" font-size="13" fill="#607487">0.2</text>
<line x1="88" y1="272.00" x2="1056" y2="272.00" stroke="#e9eef4" stroke-width="1"/>
<text x="76" y="276.00" text-anchor="end" font-family="Arial, sans-serif" font-size="13" fill="#607487">0.5</text>
<line x1="88" y1="212.00" x2="1056" y2="212.00" stroke="#e9eef4" stroke-width="1"/>
<text x="76" y="216.00" text-anchor="end" font-family="Arial, sans-serif" font-size="13" fill="#607487">0.7</text>
<line x1="88" y1="152.00" x2="1056" y2="152.00" stroke="#e9eef4" stroke-width="1"/>
<text x="76" y="156.00" text-anchor="end" font-family="Arial, sans-serif" font-size="13" fill="#607487">0.9</text>
<line x1="88" y1="92.00" x2="1056" y2="92.00" stroke="#e9eef4" stroke-width="1"/>
<text x="76" y="96.00" text-anchor="end" font-family="Arial, sans-serif" font-size="13" fill="#607487">1.2</text>
<line x1="88" y1="274.27" x2="1056" y2="274.27" stroke="#0ea5a3" stroke-dasharray="8 6" stroke-width="2"/>
<line x1="88" y1="290.28" x2="1056" y2="290.28" stroke="#f59e0b" stroke-dasharray="8 6" stroke-width="2"/>
<polyline points="88.00,131.48 88.35,132.65 88.70,129.19 89.05,127.40 89.40,130.14 90.10,128.25 90.45,129.83 90.80,130.74 91.15,127.60 91.50,128.49 91.85,127.45 92.20,128.80 92.55,127.73 92.90,127.41 93.25,128.12 93.60,129.04 93.95,125.96 94.30,126.03 94.65,125.26 95.00,124.02 95.35,126.08 95.70,121.62 96.05,122.42 96.41,121.06 96.75,121.47 97.10,121.20 97.45,120.43 97.80,118.95 98.15,118.45 98.51,117.71 98.86,117.48 99.20,117.23 99.55,115.59 99.91,115.87 100.26,116.53 100.60,114.22 100.95,114.68 101.30,114.33 101.65,114.94 102.00,114.99 102.35,114.27 102.70,115.09 103.05,114.67 103.41,116.84 103.76,115.98 104.10,117.06 104.45,117.69 104.80,119.41 105.51,122.38 105.85,120.89 106.21,123.77 106.55,124.88 106.91,125.94 107.26,125.93 107.61,130.41 107.95,130.30 108.31,134.39 108.65,133.68 109.00,135.42 109.36,133.47 109.71,133.30 110.06,131.97 110.41,135.97 110.76,136.12 111.11,137.10 111.46,137.32 111.81,137.09 112.16,137.36 112.51,138.91 112.86,138.32 113.21,139.32 113.56,138.85 113.91,140.63 114.26,139.20 114.61,138.69 114.96,140.05 115.31,140.57 115.66,140.11 116.01,143.08 116.36,141.30 116.71,143.63 117.06,144.99 117.41,143.02 117.76,145.74 118.11,144.50 118.46,146.64 118.81,148.15 119.16,147.17 119.51,148.87 119.86,149.66 120.21,150.93 120.56,151.61 120.91,154.00 121.26,154.37 121.61,155.14 121.96,157.37 122.31,160.62 122.66,161.92 123.01,161.14 123.36,162.06 123.71,160.29 124.06,161.17 124.41,162.04 124.76,163.91 125.11,166.63 125.46,167.24 125.81,170.91 126.16,170.27 126.51,173.25 126.86,172.43 127.21,173.86 127.56,176.06 127.91,175.09 128.26,176.37 128.61,178.25 128.96,179.67 129.31,180.44 129.66,177.56 130.01,178.36 130.36,178.56 130.71,177.20 131.06,177.38 131.41,178.51 131.76,178.92 132.11,180.02 132.46,179.67 132.81,180.37 133.16,180.10 133.51,180.91 133.86,181.92 134.21,182.85 134.56,183.24 134.91,183.28 135.26,184.38 135.61,185.77 135.96,185.40 136.31,185.74 136.66,186.76 137.01,187.11 137.36,189.14 137.71,188.92 138.06,189.69 138.41,188.66 138.76,191.10 139.46,192.80 139.81,192.61 140.16,193.05 140.52,193.29 141.21,197.34 141.56,197.66 141.91,198.30 142.27,198.96 142.97,200.86 143.31,200.61 143.66,200.50 144.02,200.52 144.37,200.67 144.71,202.59 145.06,202.52 145.41,203.66 145.76,204.70 146.12,204.98 146.47,205.93 146.81,206.35 147.16,208.18 147.52,207.46 147.87,208.27 148.22,210.29 148.91,210.73 149.26,211.03 149.62,210.89 149.97,211.05 150.32,210.01 150.67,209.80 151.02,209.16 151.37,209.00 151.72,207.73 152.07,206.90 152.42,206.37 152.77,207.24 153.12,206.36 153.47,207.57 153.82,206.66 154.17,208.93 154.52,209.03 154.87,210.09 155.22,210.34 155.57,210.14 155.92,212.37 156.27,211.56 156.62,211.68 156.97,212.73 157.32,212.33 157.67,212.97 158.02,212.92 158.37,212.07 158.72,211.96 159.07,212.01 159.42,213.57 159.77,212.73 160.12,213.82 160.47,214.86 160.82,216.51 161.17,217.97 161.52,221.78 161.87,224.39 162.22,225.71 162.57,225.57 162.92,228.49 163.27,227.53 163.62,228.77 163.97,228.30 164.32,229.79 164.67,228.44 165.02,227.09 165.37,228.31 165.72,228.42 166.07,227.72 166.42,227.79 166.77,228.65 167.12,228.66 167.47,229.64 167.82,230.71 168.17,231.08 168.52,231.23 168.87,232.55 169.22,232.88 169.57,232.89 169.92,231.98 170.27,232.91 170.62,232.27 170.97,228.62 171.32,229.66 171.67,228.71 172.02,227.39 172.37,226.85 172.72,226.46 173.07,227.04 173.42,227.82 173.77,228.77 174.12,229.93 174.47,231.31 174.82,231.53 175.17,231.15 175.52,232.16 175.87,232.34 176.22,233.19 176.57,233.62 176.92,232.94 177.27,234.16 177.62,233.37 177.97,237.44 178.32,237.92 178.67,238.33 179.02,241.02 179.37,239.91 179.73,240.59 180.08,242.24 180.42,243.57 180.77,247.47 181.12,247.19 181.48,246.69 181.83,248.11 182.17,250.50 182.52,252.34 182.87,253.45 183.23,254.57 183.58,254.80 183.92,254.77 184.28,255.70 184.62,256.47 184.98,257.46 185.33,257.37 185.68,258.39 186.03,258.89 186.38,257.48 186.73,257.92 187.08,257.83 187.43,256.96 187.78,257.08 188.13,257.46 188.48,257.15 188.83,257.35 189.18,256.56 189.53,255.75 189.88,255.98 190.23,254.52 190.58,253.42 190.93,254.28 191.28,254.72 191.63,254.35 191.98,255.30 192.33,253.03 193.03,254.54 193.38,256.24 193.73,257.93 194.08,256.28 194.43,257.15 194.78,256.22 195.13,260.08 195.48,257.86 195.83,256.80 196.18,260.34 196.53,259.65 196.88,262.63 197.23,266.25 197.58,263.62 197.93,265.13 198.28,266.49 198.63,265.22 198.98,268.56 199.33,268.72 199.68,273.29 200.03,271.51 200.38,271.97 200.73,272.28 201.08,274.64 201.43,275.85 201.78,276.04 202.13,277.67 202.48,276.38 202.83,279.33 203.18,278.75 203.53,278.47 203.88,281.43 204.23,280.06 204.58,281.49 204.93,281.48 205.28,282.70 205.63,283.09 205.98,283.62 206.33,282.53 206.68,281.62 207.03,283.08 207.38,284.74 207.73,283.67 208.08,284.14 208.43,284.83 208.78,283.43 209.13,283.22 209.48,283.05 209.83,281.42 210.18,279.62 210.53,278.73 210.88,278.18 211.23,278.70 211.58,276.83 211.93,277.68 212.28,277.33 212.63,278.32 212.98,276.18 213.33,277.57 213.68,278.53 214.03,279.31 214.38,278.63 214.73,278.53 215.08,280.51 215.43,280.86 215.78,282.09 216.14,282.69 216.49,282.42 216.83,285.04 217.18,284.28 217.53,285.43 217.89,286.33 218.24,285.92 218.58,286.66 218.93,286.54 219.29,286.05 219.64,288.59 219.98,290.50 220.33,290.52 220.69,292.58 221.04,293.70 221.39,295.03 221.74,297.72 222.09,299.13 222.44,300.94 222.79,301.14 223.13,302.32 223.49,304.19 223.84,306.18 224.19,305.40 224.54,303.56 224.89,306.24 225.24,305.81 225.58,305.70 225.94,306.45 226.29,307.99 226.64,307.89 226.99,308.56 227.34,309.24 227.69,310.19 228.04,310.07 228.39,309.26 228.74,311.37 229.09,310.41 229.44,311.74 229.79,310.75 230.14,308.63 230.49,307.08 230.84,308.35 231.19,309.02 231.54,309.94 231.89,311.15 232.24,312.73 232.59,312.18 232.94,311.67 233.29,314.14 233.64,313.21 233.99,311.88 234.34,311.52 234.69,310.32 235.04,310.43 235.39,310.85 235.74,310.34 236.09,308.62 236.44,310.85 236.79,310.54 237.14,311.40 237.49,311.66 237.84,317.26 238.19,314.70 238.54,318.86 239.24,319.66 239.59,322.22 239.94,322.78 240.29,324.95 240.64,328.32 240.99,327.95 241.34,330.46 241.69,330.35 242.04,331.68 242.39,328.80 242.74,331.18 243.09,331.35 243.44,331.48 243.79,330.82 244.14,332.99 244.49,334.38 244.84,334.33 245.19,333.65 245.54,339.57 245.89,341.31 246.24,341.23 246.59,341.21 246.94,342.49 247.29,341.56 247.64,341.88 247.99,340.85 248.69,336.77 249.04,335.73 249.39,333.77 249.74,334.96 250.09,327.23 250.44,330.51 250.79,329.92 251.14,327.69 251.49,324.92 251.84,327.51 252.19,325.04 252.54,323.68 252.89,324.94 253.24,322.99 253.59,323.38 253.94,321.13 254.29,320.76 254.64,320.66 254.99,317.27 255.34,316.27 255.69,312.86 256.04,313.48 256.39,313.22 256.74,312.21 257.10,312.25 257.45,310.09 257.80,309.16 258.14,311.16 258.50,309.59 258.85,312.42 259.20,310.75 259.54,313.23 259.90,314.66 260.25,314.09 260.60,313.56 260.95,314.00 261.29,315.82 261.65,315.88 262.00,316.52 262.35,318.73 262.70,319.52 263.05,319.66 263.39,324.09 263.75,320.91 264.10,322.51 264.45,324.48 264.80,321.23 265.15,323.80 265.50,321.95 265.85,323.54 266.20,323.53 266.55,323.33 266.90,321.70 267.25,322.30 267.60,321.64 267.95,321.32 268.30,320.54 268.65,320.09 269.00,317.02 269.70,318.79 270.05,317.15 270.40,314.49 270.75,315.47 271.10,314.55 271.45,312.68 271.80,310.90 272.15,309.27 272.50,309.83 272.85,307.67 273.20,310.96 273.55,312.10 273.90,310.47 274.25,310.35 274.60,307.91 274.95,305.07 275.30,305.73 275.65,305.31 276.00,303.97 276.35,305.02 276.70,302.87 277.05,304.44 277.40,304.55 277.75,306.72 278.10,308.45 278.45,306.84 278.80,308.71 279.15,309.13 279.50,311.14 279.85,313.37 280.20,314.79 280.55,317.01 280.90,316.06 281.25,317.97 281.60,319.74 281.95,320.23 282.30,321.45 282.65,322.71 283.00,324.64 283.35,325.45 283.70,328.65 284.05,330.20 284.40,331.52 284.75,332.80 285.10,332.19 285.45,332.63 285.80,332.47 286.16,332.01 286.50,336.07 286.85,334.41 287.20,336.96 287.55,335.88 287.90,337.38 288.25,338.77 288.60,335.72 288.95,337.77 289.30,337.69 289.65,337.38 290.00,336.52 290.35,337.25 290.70,338.11 291.05,335.94 291.40,337.52 291.75,333.35 292.10,333.55 292.45,332.47 292.80,329.06 293.15,329.49 293.50,326.34 293.85,327.90 294.20,327.95 294.56,329.08 294.90,327.47 295.25,328.03 295.61,327.11 295.95,329.43 296.30,328.94 296.65,327.44 297.01,326.93 297.35,326.86 297.71,327.59 298.05,327.49 298.41,326.10 298.76,325.95 299.11,327.28 299.46,327.00 299.81,326.05 300.16,327.10 300.51,325.68 300.86,328.81 301.21,328.39 301.56,331.04 301.91,330.77 302.26,332.29 302.61,334.55 302.96,334.13 303.31,336.76 303.66,335.38 304.01,336.55 304.36,335.07 304.71,336.61 305.06,337.53 305.41,338.36 305.76,336.89 306.11,337.24 306.46,335.93 306.81,338.39 307.16,335.02 307.51,334.86 307.86,333.56 308.21,333.10 308.56,332.69 308.91,331.40 309.26,330.00 309.61,326.04 309.96,327.57 310.31,327.38 310.66,328.30 311.01,326.06 311.36,324.13 311.71,323.43 312.06,322.06 312.41,318.48 312.76,316.58 313.11,316.95 313.46,311.51 313.81,313.08 314.16,312.54 314.51,311.06 314.86,310.06 315.21,309.25 315.56,309.69 315.91,307.61 316.26,308.28 316.61,306.90 316.96,307.08 317.31,305.20 317.66,305.91 318.01,306.02 318.36,304.94 318.71,303.44 319.06,306.10 319.76,304.33 320.11,305.25 320.46,305.16 320.81,304.47 321.16,302.93 321.51,300.74 321.86,300.72 322.21,301.08 322.56,299.14 322.91,301.08 323.26,300.69 323.61,298.98 323.96,297.99 324.31,301.23 324.66,300.07 325.01,300.90 325.36,300.07 325.71,300.66 326.07,299.82 326.41,298.70 326.76,298.57 327.11,298.42 327.46,296.59 327.81,297.71 328.16,295.74 328.51,296.25 328.87,295.15 329.21,293.83 329.56,291.48 329.91,291.24 330.26,289.31 330.61,290.44 330.96,287.77 331.32,288.18 331.66,286.96 332.01,286.27 332.37,286.40 332.71,285.07 333.06,285.74 333.41,284.24 333.76,283.49 334.11,283.89 334.46,281.96 334.81,280.82 335.16,277.75 335.51,277.54 335.86,277.22 336.21,275.01 336.57,276.15 336.92,273.41 337.26,274.02 337.61,274.30 337.97,271.68 338.31,273.11 338.67,270.92 339.02,271.50 339.72,269.94 340.07,271.62 340.42,269.95 340.77,270.20 341.12,270.13 341.47,270.01 341.82,270.31 342.17,269.25 342.52,271.03 342.87,269.63 343.22,270.86 343.57,268.33 343.92,269.27 344.27,270.29 344.62,270.30 344.97,271.47 345.32,269.77 345.67,268.98 346.02,271.12 346.37,270.94 346.72,271.76 347.07,271.45 347.42,272.41 347.77,274.20 348.12,273.98 348.47,273.20 348.82,273.52 349.17,274.10 349.52,274.89 349.87,274.22 350.22,276.11 350.57,274.32 350.92,274.24 351.27,276.97 351.62,275.19 351.97,276.69 352.32,277.52 352.67,277.11 353.02,281.56 353.37,279.23 353.72,283.41 354.07,281.71 354.42,285.40 354.77,289.58 355.12,286.32 355.47,286.71 355.82,285.40 356.17,285.74 356.52,284.37 356.87,286.96 357.22,286.01 357.57,288.44 357.92,282.98 358.27,283.21 358.62,279.85 358.97,282.29 359.32,280.60 359.67,281.06 360.02,283.22 360.37,285.14 360.72,285.88 361.07,286.66 361.42,287.11 361.77,288.20 362.12,289.74 362.47,289.53 362.82,290.91 363.17,292.96 363.52,291.24 363.87,294.27 364.22,293.97 364.57,296.03 364.92,296.34 365.27,295.52 365.62,296.28 365.97,295.53 366.32,297.39 366.68,294.58 367.02,296.33 367.37,299.33 367.72,296.54 368.07,299.59 368.42,297.17 368.77,298.34 369.12,297.14 369.47,297.44 369.82,297.81 370.17,295.90 370.52,298.83 370.87,294.72 371.22,297.10 371.57,296.39 371.93,295.85 372.27,297.90 372.62,300.63 372.97,296.77 373.33,300.87 373.67,298.76 374.02,298.43 374.38,301.25 374.72,296.30 375.08,297.44 375.42,296.21 375.77,294.93 376.13,291.78 376.47,289.68 376.83,289.18 377.18,288.12 377.53,287.45 377.88,285.19 378.23,287.62 378.58,282.81 378.93,286.22 379.28,284.34 379.63,283.47 379.98,284.80 380.33,284.99 380.68,286.73 381.03,286.70 381.38,286.37 381.73,289.26 382.08,293.20 382.43,292.93 382.78,295.54 383.13,294.71 383.48,295.58 383.83,295.03 384.18,296.44 384.53,298.57 384.88,299.34 385.23,298.18 385.58,299.30 385.93,300.24 386.28,300.88 386.63,299.39 386.98,301.05 387.33,301.58 387.68,300.73 388.03,300.98 388.38,302.56 388.73,301.40 389.08,301.32 389.43,299.02 389.78,300.61 390.13,297.89 390.48,297.78 390.83,296.86 391.18,296.26 391.53,298.12 391.88,298.63 392.23,298.30 392.58,299.97 392.93,300.23 393.28,301.31 393.63,302.98 393.98,301.22 394.33,303.95 394.68,304.05 395.03,304.21 395.38,305.62 395.73,306.16 396.08,306.87 396.43,306.79 396.78,307.80 397.13,304.66 397.48,307.00 397.83,306.46 398.18,304.49 398.53,304.86 398.88,305.17 399.23,304.35 399.58,305.21 399.93,304.13 400.28,304.16 400.63,304.59 400.98,304.39 401.33,305.53 401.68,305.18 402.03,304.18 402.38,305.40 402.73,304.62 403.08,304.78 403.43,303.90 403.78,304.85 404.13,302.52 404.48,302.96 404.83,304.69 405.18,304.30 405.53,304.05 405.88,302.52 406.23,302.62 406.58,301.42 406.93,301.85 407.28,300.98 407.64,298.75 407.98,298.35 408.33,295.79 408.68,296.64 409.03,293.97 409.39,296.56 409.73,297.84 410.08,296.47 410.43,296.94 410.78,294.95 411.13,297.85 411.48,295.77 411.83,300.03 412.18,298.04 412.53,298.77 412.88,301.00 413.24,299.41 413.58,299.56 413.93,301.16 414.28,299.98 414.63,300.67 414.98,302.49 415.33,301.21 415.68,302.62 416.03,300.44 416.38,299.31 416.73,299.60 417.09,303.13 417.43,302.53 417.79,302.60 418.14,304.02 418.49,306.58 418.84,301.80 419.19,303.95 419.54,304.31 419.89,305.47 420.24,304.96 420.59,305.21 420.94,303.39 421.29,303.72 421.64,302.81 421.99,304.88 422.34,303.79 422.69,304.01 423.04,302.83 423.39,303.19 423.74,300.83 424.09,300.48 424.44,301.22 424.79,300.88 425.14,300.47 425.49,299.93 425.84,298.26 426.19,296.29 426.54,297.57 426.89,295.72 427.24,296.07 427.59,293.39 427.94,294.93 428.29,291.61 428.64,293.14 428.99,290.01 429.34,289.63 429.69,287.34 430.04,287.60 430.39,285.41 430.74,289.84 431.09,286.01 431.44,287.69 431.79,287.74 432.14,286.30 432.49,289.93 432.84,289.70 433.19,287.35 433.54,290.33 433.89,289.73 434.24,291.09 434.59,290.28 434.94,293.65 435.29,288.81 435.64,292.18 435.99,293.50 436.34,294.29 436.69,294.98 437.04,297.25 437.39,297.64 437.74,302.27 438.09,302.53 438.44,302.62 438.79,304.16 439.14,305.74 439.49,306.38 439.84,306.45 440.19,307.02 440.54,303.97 440.89,305.76 441.24,302.68 441.59,302.82 441.94,303.72 442.29,302.47 442.64,303.32 442.99,300.77 443.34,302.33 443.69,300.08 444.04,298.99 444.39,298.49 444.74,299.35 445.09,298.58 445.44,294.41 445.79,295.81 446.14,295.28 446.49,293.22 446.84,295.29 447.19,292.68 447.54,295.00 447.89,291.16 448.24,292.72 448.59,292.99 448.94,292.11 449.29,291.42 449.64,293.96 449.99,290.53 450.34,293.41 450.70,289.98 451.04,292.62 451.39,290.75 451.74,293.10 452.09,294.89 452.44,295.00 452.80,298.27 453.14,299.79 453.49,298.41 453.84,302.82 454.19,302.65 454.54,305.22 454.90,301.52 455.24,304.40 455.59,302.72 455.95,304.90 456.30,305.70 456.64,306.08 456.99,306.35 457.35,307.57 457.69,306.54 458.04,310.44 458.40,312.09 458.75,312.10 459.10,316.03 459.45,316.80 459.80,315.95 460.15,317.98 460.50,318.93 460.85,318.68 461.20,318.67 461.55,320.16 461.90,318.27 462.25,318.50 462.60,320.22 462.95,318.63 463.30,314.81 463.65,317.23 464.00,316.23 464.35,315.28 464.70,315.86 465.05,314.00 465.40,312.86 465.75,312.84 466.10,314.31 466.45,311.23 466.80,307.23 467.15,307.11 467.50,308.22 467.85,306.69 468.20,306.16 468.55,302.17 468.90,301.47 469.25,301.78 469.60,298.69 469.95,297.51 470.30,296.42 470.65,295.08 471.00,294.98 471.35,296.25 471.70,295.09 472.05,294.90 472.40,298.01 472.75,293.78 473.10,293.84 473.45,297.96 473.80,300.43 474.15,298.51 474.50,302.39 474.85,298.88 475.20,301.91 475.55,301.53 475.90,305.96 476.25,308.39 476.60,310.12 476.95,314.74 477.30,311.77 477.65,311.47 478.00,317.91 478.35,317.59 478.70,321.01 479.05,321.80 479.40,326.54 479.75,326.81 480.10,327.96 480.45,327.88 480.80,328.69 481.15,329.04 481.50,328.00 481.85,329.10 482.20,330.48 482.55,328.00 482.90,328.44 483.25,329.26 483.60,326.57 483.95,328.30 484.30,324.82 484.65,325.72 485.00,326.12 485.35,323.65 485.70,325.33 486.05,325.48 486.41,324.48 486.75,324.21 487.10,319.10 487.45,316.77 487.80,317.81 488.15,316.49 488.50,316.77 488.85,317.09 489.21,316.57 489.55,315.99 489.90,312.68 490.26,315.48 490.60,312.13 490.95,313.09 491.31,309.73 491.66,309.26 492.00,306.62 492.35,305.50 492.71,305.30 493.05,301.29 493.40,302.99 493.75,302.10 494.10,301.97 494.45,303.90 494.80,306.92 495.15,308.20 495.50,304.69 495.85,310.51 496.21,307.72 496.55,311.57 496.90,309.48 497.26,310.38 497.61,309.16 497.96,312.78 498.31,310.31 498.66,313.48 499.01,315.23 499.36,315.02 499.71,318.57 500.06,318.85 500.41,320.76 500.76,322.28 501.11,323.50 501.46,321.90 501.81,322.98 502.16,322.77 502.51,324.55 502.86,322.93 503.21,324.87 503.56,324.50 503.91,323.82 504.26,324.15 504.61,324.53 504.96,322.32 505.31,322.29 505.66,325.33 506.01,324.26 506.36,321.24 506.71,322.19 507.06,321.10 507.41,317.39 507.76,318.26 508.11,317.48 508.46,317.37 508.81,317.18 509.16,313.33 509.51,316.05 509.86,312.06 510.21,313.34 510.56,314.13 510.91,312.44 511.26,311.27 511.61,311.63 511.96,311.04 512.31,307.61 512.66,307.68 513.01,308.01 513.36,308.39 513.71,306.10 514.06,306.44 514.41,304.98 514.76,306.36 515.11,305.06 515.46,309.33 515.81,307.38 516.16,313.13 516.51,311.64 516.86,319.48 517.21,321.16 517.56,324.74 517.91,327.44 518.26,325.71 518.61,327.38 518.96,327.87 519.31,328.72 519.66,329.14 520.01,332.10 520.36,330.16 520.71,328.52 521.06,329.70 521.41,332.30 521.76,331.60 522.11,333.36 522.46,330.23 522.81,331.86 523.16,334.14 523.51,334.06 523.86,332.59 524.21,332.94 524.56,334.06 524.91,331.29 525.26,333.59 525.61,332.24 525.96,332.99 526.31,332.27 526.66,331.09 527.02,331.25 527.36,330.93 527.71,327.95 528.06,329.41 528.41,327.10 528.76,326.75 529.12,322.59 529.46,321.57 529.81,320.71 530.16,319.53 530.52,319.95 530.87,317.29 531.22,315.26 531.56,318.25 531.91,314.40 532.27,317.42 532.61,316.24 532.96,320.83 533.32,318.74 533.67,318.50 534.01,320.75 534.37,322.78 534.72,326.86 535.06,326.08 535.42,329.32 535.76,330.82 536.12,332.93 536.47,336.12 536.81,334.56 537.16,339.24 537.52,340.51 537.87,346.04 538.22,345.04 538.57,348.93 538.92,346.18 539.27,347.75 539.62,348.56 539.97,346.72 540.32,352.30 540.67,351.39 541.02,353.64 541.37,353.67 541.72,353.46 542.07,351.66 542.42,351.99 542.77,351.80 543.12,352.94 543.47,353.58 543.82,353.17 544.17,353.14 544.52,350.48 544.87,351.47 545.22,349.20 545.57,345.99 545.92,347.24 546.27,348.83 546.62,344.66 546.97,346.73 547.32,341.86 547.67,342.50 548.02,338.69 548.37,336.81 548.72,331.77 549.07,331.66 549.42,331.05 549.77,327.53 550.12,325.20 550.47,323.22 550.82,319.86 551.17,317.59 551.52,312.07 551.87,313.37 552.22,311.50 552.57,309.44 552.92,311.60 553.27,309.90 553.62,309.29 553.97,307.09 554.32,307.51 554.67,310.55 555.02,306.32 555.37,310.26 555.72,309.83 556.07,310.30 556.42,312.79 556.77,314.91 557.12,316.17 557.47,316.35 557.82,319.22 558.17,320.97 558.52,321.45 558.87,317.76 559.22,319.96 559.57,321.24 559.92,315.25 560.27,318.86 560.62,315.83 560.97,315.60 561.32,316.65 561.67,320.18 562.02,319.22 562.37,322.95 562.72,323.40 563.07,322.09 563.42,326.05 563.77,322.03 564.12,324.62 564.47,325.02 564.82,323.73 565.18,325.80 565.53,322.77 565.88,321.43 566.22,319.51 566.57,321.82 566.93,317.65 567.27,316.30 567.62,315.04 567.98,315.46 568.32,314.65 568.68,312.03 569.03,310.23 569.37,308.90 569.73,305.41 570.08,301.09 570.42,303.04 570.77,298.98 571.13,297.27 571.48,294.77 571.83,294.73 572.17,292.43 572.53,289.78 572.88,291.05 573.23,291.31 573.57,291.30 573.93,286.46 574.27,289.50 574.63,285.28 574.97,282.92 575.33,283.61 575.68,280.65 576.03,288.60 576.38,291.13 576.73,288.76 577.08,293.14 577.43,288.98 577.78,295.61 578.13,294.12 578.48,298.75 578.83,298.41 579.18,296.25 579.53,297.20 579.88,299.52 580.23,303.38 580.58,302.77 580.93,303.05 581.28,308.80 581.63,306.42 581.98,305.85 582.33,309.02 582.68,310.62 583.03,307.49 583.38,307.22 583.73,308.14 584.08,308.16 584.43,305.07 584.78,304.21 585.13,305.53 585.48,306.75 585.83,306.76 586.18,304.96 586.53,306.34 586.88,302.91 587.23,303.84 587.58,305.68 587.93,306.67 588.28,304.69 588.63,304.22 588.98,306.92 589.33,300.05 589.68,303.71 590.03,300.91 590.38,302.02 590.73,295.00 591.08,297.93 591.43,300.24 591.78,301.08 592.13,298.13 592.48,297.36 592.83,296.77 593.18,298.42 593.53,297.15 593.88,296.91 594.23,288.78 594.58,294.03 594.93,293.00 595.28,292.57 595.63,296.63 595.99,305.32 596.33,298.29 596.68,302.28 597.03,307.24 597.38,308.54 597.73,308.13 598.08,308.28 598.43,309.60 598.78,310.59 599.13,306.12 599.48,311.16 599.83,307.56 600.18,309.95 600.53,305.68 600.88,309.46 601.23,309.85 601.58,309.43 601.94,307.54 602.28,309.47 602.63,307.87 602.98,308.30 603.34,307.65 603.69,308.68 604.03,309.26 604.38,309.19 604.73,308.84 605.08,310.03 605.44,309.19 605.79,310.72 606.14,310.01 606.49,309.95 606.84,311.12 607.18,311.10 607.54,312.19 607.89,310.63 608.24,310.86 608.59,311.28 608.94,310.34 609.29,310.55 609.64,311.31 609.99,310.00 610.34,310.53 610.69,311.67 611.04,310.51 611.39,311.65 611.74,310.12 612.09,310.57 612.44,310.18 612.79,308.58 613.14,308.75 613.49,307.35 613.84,308.87 614.19,308.93 614.54,305.22 614.89,309.89 615.24,306.93 615.59,310.73 615.94,306.39 616.29,307.46 616.64,310.45 616.99,311.79 617.34,315.98 617.69,313.22 618.04,317.66 618.39,315.68 618.74,315.24 619.09,318.77 619.44,317.88 619.79,318.38 620.14,318.59 620.49,319.24 620.84,318.55 621.19,318.11 621.54,318.00 621.89,316.25 622.24,317.06 622.59,317.98 622.94,317.51 623.29,314.94 623.64,311.94 623.99,308.77 624.34,310.96 624.69,311.24 625.04,311.29 625.39,311.49 625.74,311.37 626.09,314.71 626.44,315.32 626.79,315.46 627.14,316.22 627.49,316.72 627.84,317.80 628.19,318.17 628.54,320.44 628.89,320.60 629.24,321.35 629.59,319.76 629.94,321.77 630.29,322.76 630.64,323.42 630.99,323.71 631.34,323.97 631.69,323.75 632.04,324.85 632.39,324.52 632.74,326.18 633.09,325.41 633.44,326.08 633.79,326.51 634.14,327.72 634.49,327.64 634.84,327.78 635.19,327.97 635.54,327.69 635.90,328.54 636.24,328.32 636.59,328.64 636.95,328.80 637.30,328.75 637.64,329.36 637.99,329.35 638.35,330.04 638.70,329.70 639.04,330.42 639.39,329.94 639.74,329.95 640.10,328.12 640.44,319.60 640.79,317.94 641.14,318.51 641.50,316.71 641.84,320.50 642.20,312.71 642.55,311.96 642.89,306.62 643.24,302.37 643.59,301.57 643.94,296.14 644.30,297.17 644.64,298.03 644.99,299.26 645.34,300.87 645.70,301.42 646.04,297.22 646.40,296.53 646.75,302.55 647.10,300.70 647.44,303.39 647.80,305.33 648.15,307.50 648.50,305.57 648.85,308.28 649.20,310.73 649.55,309.89 649.90,315.48 650.25,314.00 650.60,317.85 650.95,315.38 651.30,318.88 651.65,319.33 652.00,320.62 652.35,320.26 652.70,322.32 653.05,323.14 653.40,324.53 653.75,327.86 654.10,328.75 654.45,326.70 654.80,329.03 655.15,326.66 655.50,328.53 655.85,327.43 656.20,327.05 656.55,328.50 656.90,325.99 657.25,326.46 657.60,321.77 657.95,321.08 658.30,317.89 658.65,318.67 659.00,316.22 659.35,314.08 659.70,316.25 660.05,313.31 660.40,312.71 660.75,310.23 661.10,309.71 661.45,309.00 661.80,304.06 662.15,302.02 662.50,296.58 662.85,299.68 663.20,295.68 663.55,295.24 663.90,290.68 664.25,288.69 664.60,288.50 664.95,285.42 665.30,280.28 665.65,283.37 666.00,281.83 666.35,276.47 666.70,277.34 667.05,276.18 667.40,276.41 667.75,273.18 668.10,273.40 668.45,270.74 668.80,271.68 669.15,273.35 669.50,271.34 669.85,269.26 670.20,266.87 670.55,266.90 670.90,263.58 671.25,265.61 671.60,264.93 671.95,263.89 672.30,261.67 672.65,258.54 673.00,256.88 673.35,253.78 673.70,251.54 674.05,252.68 674.41,250.27 674.75,246.43 675.11,245.27 675.45,241.58 675.80,240.69 676.15,238.42 676.51,238.10 676.85,237.31 677.20,235.91 677.56,237.20 677.91,238.38 678.25,236.87 678.60,239.71 678.96,239.38 679.31,240.53 679.65,239.04 680.00,241.23 680.36,241.83 680.70,244.36 681.05,249.40 681.40,251.20 681.76,253.78 682.10,254.76 682.46,256.54 682.81,257.66 683.15,256.95 683.50,254.46 683.86,257.48 684.21,258.15 684.55,258.76 684.91,263.38 685.26,258.59 685.60,261.50 685.95,258.83 686.31,259.84 686.66,260.10 687.01,259.64 687.36,257.34 687.71,256.76 688.06,256.43 688.41,256.98 688.76,256.88 689.11,256.47 689.46,253.59 689.81,252.24 690.16,251.56 690.51,251.65 690.86,249.92 691.21,248.89 691.56,248.32 691.91,247.99 692.26,247.23 692.61,243.22 692.96,244.12 693.31,241.98 693.66,242.86 694.01,238.32 694.36,236.23 694.71,240.11 695.06,239.13 695.41,234.12 695.76,235.39 696.11,233.06 696.46,235.75 696.81,232.23 697.16,231.01 697.51,231.74 697.86,232.16 698.21,231.25 698.56,230.50 698.91,228.09 699.26,231.11 699.61,232.06 699.96,229.13 700.31,234.84 700.66,232.82 701.01,239.27 701.36,236.33 701.71,239.99 702.06,238.12 702.41,238.83 702.76,246.97 703.11,248.77 703.46,253.86 703.81,255.07 704.16,253.81 704.51,255.05 704.86,257.34 705.21,260.42 705.56,260.12 705.91,258.34 706.26,258.23 706.61,258.52 706.96,256.74 707.31,257.60 707.66,255.17 708.01,254.74 708.36,252.21 708.71,251.66 709.06,249.30 709.41,249.12 709.76,246.41 710.11,246.22 710.46,243.76 710.81,241.85 711.16,235.45 711.51,236.72 711.86,237.20 712.21,235.58 712.56,234.49 712.91,230.90 713.26,230.74 713.61,227.61 713.96,227.24 714.31,228.01 714.66,226.03 715.01,225.66 715.36,225.28 715.71,224.52 716.06,222.62 716.41,223.60 716.76,222.97 717.11,225.54 717.47,223.46 717.82,227.15 718.16,227.46 718.51,227.93 718.86,228.40 719.22,230.77 719.57,228.65 719.92,234.93 720.26,238.82 720.62,241.35 720.97,246.95 721.32,258.14 722.01,258.40 722.36,255.58 722.71,253.30 723.07,261.68 723.42,255.82 723.76,258.96 724.12,261.08 724.46,259.78 724.82,259.81 725.16,261.96 725.51,263.89 725.86,264.54 726.21,259.08 726.57,261.56 726.92,264.99 727.27,262.14 727.61,261.79 727.97,259.48 728.32,261.97 728.67,256.02 729.02,259.34 729.37,256.08 729.72,252.82 730.07,255.57 730.42,255.44 730.77,252.61 731.12,250.92 731.47,254.49 731.82,256.17 732.17,258.53 732.52,258.89 732.87,260.88 733.22,258.71 733.57,259.56 733.92,257.70 734.27,261.36 734.62,264.36 734.97,263.07 735.32,263.39 735.67,260.57 736.02,259.12 736.37,257.59 736.72,254.94 737.07,251.53 737.42,248.45 737.77,246.77 738.12,243.28 738.47,241.62 738.82,240.17 739.17,240.54 739.52,241.16 739.87,242.14 740.22,241.24 740.57,241.75 740.92,244.83 741.27,245.85 741.62,246.08 741.97,252.70 742.32,255.79 742.67,258.26 743.02,259.89 743.37,262.04 743.72,262.53 744.07,263.69 744.42,265.07 744.77,264.40 745.12,262.73 745.47,262.13 745.82,263.66 746.17,264.93 746.52,266.51 746.87,265.54 747.22,263.39 747.57,264.88 747.92,262.44 748.27,260.99 748.62,260.71 748.97,258.91 749.32,259.15 749.67,256.32 750.02,259.02 750.37,258.26 750.72,257.26 751.07,259.87 751.42,257.65 751.77,257.03 752.12,255.55 752.47,256.00 752.82,255.49 753.17,258.54 753.52,253.14 753.87,252.87 754.22,256.00 754.57,248.64 754.92,250.42 755.27,248.12 755.62,245.87 755.97,242.66 756.33,238.46 756.67,233.02 757.03,233.97 757.38,227.90 757.72,226.51 758.07,227.77 758.43,222.97 758.77,224.92 759.12,224.95 759.47,225.68 759.83,231.39 760.18,228.26 760.53,231.99 760.87,236.17 761.23,231.95 761.58,230.55 761.93,232.41 762.27,231.22 762.62,232.89 762.97,229.64 763.32,235.33 763.68,232.62 764.03,236.09 764.38,237.28 764.73,243.40 765.07,242.44 765.43,243.98 765.78,248.77 766.12,249.04 766.47,252.38 766.83,253.68 767.18,256.98 767.53,257.70 767.88,263.36 768.23,259.23 768.58,261.91 768.93,260.07 769.28,264.04 769.63,257.56 769.98,260.84 770.33,259.60 770.68,263.50 771.03,265.34 771.38,261.13 771.73,267.70 772.08,261.19 772.43,266.13 772.78,264.85 773.13,269.44 773.48,269.27 773.83,271.89 774.18,273.09 774.53,269.34 774.88,274.02 775.23,270.14 775.58,272.06 775.93,272.30 776.28,268.99 776.63,270.59 776.98,268.71 777.33,263.67 777.68,266.37 778.03,261.25 778.38,261.76 778.73,264.09 779.08,261.33 779.43,265.45 779.78,265.40 780.13,267.76 780.48,268.35 780.83,267.35 781.18,271.70 781.53,274.95 781.88,278.64 782.23,280.07 782.58,280.37 782.93,284.13 783.28,285.70 783.63,286.08 783.98,289.85 784.33,289.34 784.68,291.34 785.03,290.53 785.38,295.14 785.73,291.64 786.08,296.83 786.43,291.89 786.78,295.64 787.13,294.00 787.48,295.38 787.83,294.50 788.18,295.79 788.53,298.48 788.88,295.46 789.23,296.22 789.58,298.00 789.93,299.34 790.28,299.82 790.63,297.48 790.98,298.31 791.33,297.97 791.68,299.45 792.03,300.54 792.38,300.25 792.73,298.97 793.08,299.34 793.43,300.39 793.78,298.34 794.14,298.86 794.48,300.48 794.84,298.80 795.19,299.56 795.53,299.03 795.89,300.27 796.24,296.56 796.59,297.57 796.93,294.06 797.29,292.85 797.64,291.03 797.99,294.68 798.34,291.51 798.68,290.55 799.04,291.96 799.38,291.70 799.74,293.14 800.08,292.06 800.44,296.22 800.78,294.17 801.13,295.54 801.49,295.97 801.84,295.92 802.19,295.38 802.53,296.40 802.89,297.95 803.24,298.47 803.59,300.18 803.94,300.23 804.28,297.96 804.63,297.76 804.99,301.10 805.34,295.40 805.69,304.00 806.03,302.77 806.39,305.09 806.74,309.90 807.09,312.41 807.43,314.16 807.79,310.73 808.14,312.12 808.49,315.95 808.84,313.38 809.19,315.92 809.54,315.32 809.89,311.66 810.24,319.72 810.59,314.56 810.94,314.77 811.29,317.35 811.64,313.76 811.99,315.49 812.34,312.90 812.69,308.04 813.04,306.24 813.39,307.40 813.74,303.71 814.09,302.29 814.44,302.85 814.79,302.49 815.14,298.42 815.49,299.09 815.84,298.68 816.19,299.52 816.54,296.35 816.89,295.13 817.24,296.98 817.59,295.41 817.94,294.85 818.29,297.06 818.64,298.26 818.99,294.03 819.34,296.89 819.69,293.17 820.04,293.19 820.39,294.90 820.74,294.11 821.09,293.73 821.44,296.61 821.79,295.95 822.14,293.49 822.49,290.83 822.84,294.14 823.19,291.02 823.54,293.62 823.89,294.83 824.24,290.58 824.59,293.42 824.94,295.19 825.29,293.50 825.64,292.61 825.99,295.30 826.34,297.25 826.69,296.49 827.04,304.34 827.39,301.77 827.74,304.66 828.09,303.53 828.44,303.72 828.79,304.79 829.14,305.45 829.49,306.29 829.84,303.16 830.19,304.79 830.54,303.66 830.89,304.74 831.24,305.07 831.59,305.02 831.94,303.22 832.29,304.17 832.64,307.17 832.99,305.24 833.34,303.51 833.69,301.36 834.05,300.43 834.39,298.87 834.74,297.36 835.10,296.51 835.45,295.33 835.80,293.29 836.14,293.16 836.50,293.77 836.85,290.43 837.20,292.77 837.55,295.11 837.90,292.19 838.25,293.59 838.60,291.52 838.95,293.21 839.30,292.53 839.65,288.93 840.00,286.29 840.35,292.27 840.69,288.46 841.05,291.52 841.40,289.69 841.75,287.70 842.10,287.16 842.45,291.21 842.80,291.27 843.15,290.21 843.50,288.98 843.85,290.42 844.20,288.70 844.55,289.61 844.90,290.76 845.25,288.94 845.60,289.31 845.95,288.27 846.30,289.19 846.65,292.52 847.00,290.15 847.35,293.65 847.70,295.42 848.05,295.36 848.40,296.92 848.75,297.34 849.10,298.80 849.45,301.65 849.80,299.31 850.15,299.16 850.50,303.07 850.85,301.18 851.20,298.01 851.55,300.10 851.90,298.13 852.25,296.05 852.60,293.35 852.95,293.40 853.30,295.07 853.65,293.50 854.00,290.60 854.35,290.09 854.70,283.36 855.05,280.74 855.40,280.24 855.75,281.23 856.10,281.57 856.45,280.97 856.80,279.06 857.15,280.57 857.50,278.54 857.85,277.75 858.20,273.07 858.55,278.65 858.90,280.00 859.25,284.60 859.60,281.00 859.95,274.15 860.30,276.43 860.65,275.12 861.00,275.84 861.35,275.72 861.70,274.87 862.05,277.86 862.40,280.66 862.75,281.12 863.10,280.47 863.45,282.32 863.80,283.78 864.15,285.44 864.50,283.51 864.85,288.32 865.20,280.77 865.55,283.74 865.90,278.62 866.25,277.65 866.60,283.18 866.95,281.56 867.30,281.78 867.65,283.57 868.00,285.42 868.35,284.41 868.70,286.44 869.05,285.43 869.40,287.53 869.75,285.92 870.10,285.22 870.45,285.85 870.80,283.48 871.15,286.47 871.50,284.43 871.85,285.88 872.20,285.38 872.55,285.07 872.90,283.48 873.25,283.20 873.60,281.79 873.96,284.31 874.30,283.21 874.65,283.97 875.01,283.80 875.36,285.15 875.70,282.13 876.06,282.01 876.40,278.88 876.76,278.60 877.11,275.88 877.46,276.52 877.81,278.40 878.16,277.67 878.51,274.84 878.86,276.91 879.21,277.15 879.56,273.95 879.91,273.14 880.26,272.51 880.61,275.53 880.96,270.46 881.31,274.94 881.66,274.55 882.01,274.30 882.36,275.55 882.71,273.90 883.06,277.09 883.41,276.29 883.76,278.66 884.11,276.36 884.46,277.23 884.81,279.60 885.16,280.50 885.51,280.11 885.86,280.70 886.21,280.69 886.56,282.24 886.91,282.61 887.26,284.90 887.61,284.82 887.96,284.48 888.31,285.36 888.66,285.42 889.01,286.09 889.36,284.01 889.71,285.63 890.06,286.01 890.41,285.66 890.76,284.77 891.11,284.79 891.46,285.28 891.81,285.77 892.16,285.30 892.51,285.24 892.86,285.94 893.21,285.58 893.56,286.77 893.91,285.93 894.26,284.47 894.61,286.27 894.96,286.21 895.31,287.92 895.66,288.35 896.01,289.28 896.36,288.03 896.71,289.16 897.06,290.11 897.41,289.00 897.76,288.85 898.11,290.74 898.46,288.39 898.81,290.40 899.16,289.71 899.51,290.11 899.86,289.83 900.21,287.90 900.56,289.72 900.91,288.48 901.26,287.91 901.61,288.96 901.96,286.95 902.31,287.23 902.66,287.67 903.01,288.86 903.36,290.02 903.71,290.28 904.06,288.61 904.41,288.73 904.76,289.45 905.11,290.27 905.46,289.57 905.81,289.43 906.17,287.67 906.51,286.34 906.86,286.56 907.21,283.18 907.56,282.21 907.91,281.12 908.26,280.34 908.61,278.51 908.96,279.76 909.31,280.74 909.66,279.19 910.01,280.33 910.36,281.41 910.71,282.42 911.06,284.17 911.41,283.82 911.76,283.57 912.11,284.07 912.46,281.78 912.81,282.49 913.16,282.11 913.52,282.80 913.86,282.06 914.21,281.68 914.56,281.11 914.91,281.41 915.27,280.91 915.61,281.36 915.96,278.66 916.32,279.37 916.66,280.21 917.01,277.45 917.37,277.62 917.72,275.81 918.07,277.09 918.42,276.62 918.77,276.31 919.12,277.79 919.47,277.23 919.82,277.08 920.17,277.04 920.52,277.74 921.22,277.14 921.57,276.70 921.92,277.46 922.27,276.12 922.62,276.28 922.97,274.81 923.32,275.38 923.67,274.17 924.02,275.42 924.37,277.54 924.72,278.06 925.07,278.26 925.42,276.79 925.77,278.35 926.12,279.37 926.47,279.48 926.82,277.18 927.17,279.31 927.52,277.49 927.87,278.92 928.22,278.74 928.57,278.59 928.92,280.69 929.27,280.56 929.62,282.42 929.97,281.57 930.32,281.73 930.67,282.57 931.02,280.94 931.37,281.05 931.72,281.67 932.07,281.76 932.42,281.48 932.77,282.55 933.12,281.68 933.47,281.74 933.82,281.88 934.17,280.47 934.52,281.63 934.87,280.05 935.22,281.32 935.57,281.15 935.92,280.89 936.27,281.17 936.62,279.88 936.97,281.38 937.32,280.84 937.67,282.18 938.02,281.40 938.37,281.37 938.72,279.71 939.07,279.12 939.42,281.86 939.77,280.20 940.12,279.33 940.47,279.32 940.82,279.22 941.17,278.97 941.52,279.66 941.87,278.39 942.22,279.06 942.57,278.24 942.92,277.63 943.27,279.00 943.62,278.82 943.97,278.87 944.32,278.95 944.67,277.94 945.02,277.60 945.37,278.03 945.72,278.74 946.07,278.32 946.42,278.12 946.77,278.32 947.12,278.96 947.47,279.28 947.82,277.90 948.17,277.65 948.52,278.52 948.87,278.07 949.23,277.73 949.57,278.07 949.92,275.30 950.27,274.78 950.62,275.59 950.97,274.94 951.32,276.19 951.67,275.64 952.02,274.85 952.37,274.77 952.72,273.98 953.07,276.45 953.42,273.81 953.77,274.99 954.12,275.57 954.48,275.54 954.82,276.35 955.17,276.87 955.52,276.72 955.88,276.08 956.22,276.01 956.58,277.89 956.93,277.18 957.28,276.62 957.62,275.97 957.98,278.34 958.33,279.33 958.68,279.70 959.03,280.13 959.38,279.09 959.73,278.87 960.08,280.61 960.43,280.61 960.78,280.88 961.13,282.16 961.48,282.63 961.83,283.02 962.18,282.56 962.53,284.29 962.88,283.65 963.23,283.52 963.58,284.11 963.93,282.29 964.28,283.06 964.63,283.90 964.98,284.10 965.33,283.69 965.68,284.50 966.03,284.99 966.38,285.32 966.73,286.15 967.08,287.09 967.43,287.21 967.78,288.41 968.13,288.03 968.48,289.46 968.83,290.13 969.18,290.70 969.53,291.36 969.88,290.48 970.23,291.71 970.58,293.12 970.93,292.99 971.28,293.95 971.63,291.79 971.98,291.92 972.33,292.83 972.68,292.00 973.03,290.73 973.38,291.51 973.73,289.31 974.08,291.27 974.43,289.65 974.78,290.36 975.13,290.88 975.48,289.91 975.83,291.69 976.18,289.93 976.53,291.05 976.88,289.28 977.23,290.62 977.58,289.85 977.93,289.15 978.28,290.26 978.63,288.96 978.98,288.86 979.33,289.17 979.68,287.47 980.03,288.94 980.38,286.89 980.73,289.14 981.08,288.67 981.43,287.69 981.78,288.51 982.13,286.90 982.48,287.58 982.83,286.78 983.18,286.97 983.53,286.57 983.88,287.29 984.23,286.71 984.58,286.79 984.93,286.77 985.28,286.60 985.63,285.84 985.98,286.14 986.33,286.15 986.68,286.13 987.03,285.91 987.38,286.03 987.73,286.31 988.08,285.93 988.43,284.91 988.78,285.45 989.13,286.80 989.48,286.40 989.83,285.99 990.18,286.32 990.53,287.43 990.88,288.80 991.23,288.66 991.58,288.94 991.93,288.70 992.28,288.03 992.63,286.44 992.98,286.53 993.33,284.97 993.68,286.20 994.03,283.98 994.38,284.79 994.73,284.09 995.08,284.58 995.44,283.24 995.78,282.71 996.13,282.49 996.48,281.50 996.83,281.42 997.19,280.69 997.54,280.80 997.89,281.06 998.24,280.04 998.59,280.40 998.94,279.51 999.29,278.01 999.64,277.70 999.99,276.51 1000.34,276.40 1000.69,275.30 1001.04,276.17 1001.39,277.10 1001.74,277.37 1002.09,276.97 1002.44,276.95 1002.79,276.46 1003.14,276.47 1003.49,277.20 1003.84,276.93 1004.19,275.02 1004.54,276.82 1004.89,276.81 1005.24,277.38 1005.59,277.34 1005.94,277.11 1006.29,278.69 1006.64,278.21 1006.99,279.59 1007.34,278.44 1007.69,277.48 1008.04,279.70 1008.39,277.83 1008.74,280.46 1009.09,279.27 1009.44,280.60 1009.79,280.44 1010.14,280.67 1010.49,281.64 1010.84,280.90 1011.19,281.68 1011.54,280.87 1011.89,281.19 1012.24,281.97 1012.59,282.90 1012.94,284.36 1013.29,285.16 1013.64,285.03 1013.99,285.30 1014.34,286.24 1014.69,285.64 1015.04,286.97 1015.39,286.50 1015.74,285.22 1016.09,285.54 1016.44,285.94 1016.79,286.61 1017.14,285.22 1017.49,285.60 1017.84,284.74 1018.19,284.31 1018.54,283.32 1018.89,283.16 1019.24,284.31 1019.59,284.47 1019.94,284.14 1020.29,283.99 1020.64,284.60 1020.99,284.52 1021.34,284.99 1021.69,285.06 1022.04,284.87 1022.39,283.48 1022.74,282.96 1023.09,284.24 1023.44,285.23 1023.79,286.33 1024.14,286.12 1024.49,286.09 1024.84,286.09 1025.19,285.52 1025.54,285.03 1025.89,284.52 1026.24,284.31 1026.59,284.27 1026.94,286.30 1027.29,287.67 1027.64,288.46 1027.99,288.76 1028.34,289.04 1028.69,288.44 1029.04,287.84 1029.39,289.70 1029.74,288.73 1030.09,289.59 1030.44,288.98 1030.79,290.56 1031.14,291.91 1031.49,291.88 1031.84,289.41 1032.19,291.10 1032.54,289.27 1032.89,289.39 1033.24,290.78 1033.59,290.21 1033.94,291.08 1034.29,290.81 1034.64,289.66 1034.99,290.71 1035.34,289.78 1035.70,290.19 1036.04,291.19 1036.39,289.78 1036.74,289.84 1037.09,289.68 1037.45,290.84 1037.80,290.44 1038.15,289.89 1038.50,291.00 1038.85,289.87 1039.20,291.35 1039.55,290.17 1039.90,290.06 1040.25,291.18 1040.60,289.85 1040.95,291.41 1041.30,291.61 1041.65,290.56 1042.00,291.82 1042.35,290.31 1042.70,291.20 1043.05,290.03 1043.40,290.98 1043.75,291.17 1044.10,289.39 1044.45,290.47 1044.80,289.36 1045.15,291.12 1045.50,290.66 1045.85,290.01 1046.20,290.65 1046.55,290.28 1046.90,290.94 1047.25,290.73 1047.60,290.97 1047.95,291.21 1048.30,291.28 1048.65,291.37 1049.00,290.97 1049.35,291.50 1049.70,289.91 1050.05,289.61 1050.40,289.80 1050.75,289.96 1051.10,291.20 1051.45,291.07 1051.80,289.84 1052.15,290.38 1052.50,290.03 1052.85,291.05 1053.20,290.72 1053.55,290.17 1053.90,289.55 1054.25,289.38 1054.60,289.54 1054.95,291.98 1055.30,290.45 1055.65,290.90 1056.00,289.60" fill="none" stroke="#7a3cff" stroke-width="2.4" vector-effect="non-scaling-stroke"/>
<text x="572.00" y="450" text-anchor="middle" font-family="Arial, sans-serif" font-size="15" fill="#425568">Time [s]</text>
<text x="22" y="242.00" transform="rotate(-90 22 242.00)" text-anchor="middle" font-family="Arial, sans-serif" font-size="15" fill="#425568">Position error [m]</text>
<rect x="714" y="18" width="338" height="88" rx="10" fill="#ffffff" stroke="#d8e3ef"/>
<line x1="734" y1="42" x2="770" y2="42" stroke="#7a3cff" stroke-width="4"/>
<text x="780" y="47" font-family="Arial, sans-serif" font-size="15" fill="#7a3cff">error trace</text>
<line x1="734" y1="68" x2="770" y2="68" stroke="#0ea5a3" stroke-dasharray="8 6" stroke-width="3"/>
<text x="780" y="73" font-family="Arial, sans-serif" font-size="15" fill="#0ea5a3">RMSE 0.457 m</text>
<line x1="734" y1="94" x2="770" y2="94" stroke="#f59e0b" stroke-dasharray="8 6" stroke-width="3"/>
<text x="780" y="99" font-family="Arial, sans-serif" font-size="15" fill="#f59e0b">median 0.395 m, max 1.078 m</text>
</svg>