<svg xmlns="http://www.w3.org/2000/svg" viewBox="0 0 1080 640" width="1080" height="640">
<rect width="100%" height="100%" fill="#f6f8fb"/>
<text x="28" y="38" font-family="Arial, sans-serif" font-size="28" font-weight="700" fill="#13202b">GLIM MID360 sample: XY trajectory overlay</text>
<text x="28" y="66" font-family="Arial, sans-serif" font-size="16" fill="#516679">Rigid alignment applied. The plot uses a fixed aspect ratio to preserve geometry.</text>
<rect x="96" y="116" width="960" height="452" fill="#ffffff" stroke="#d8e3ef"/>
<line x1="419.10" y1="116" x2="419.10" y2="568" stroke="#e9eef4" stroke-width="1"/>
<text x="419.10" y="612" text-anchor="middle" font-family="Arial, sans-serif" font-size="13" fill="#607487">-253.5</text>
<line x1="481.86" y1="116" x2="481.86" y2="568" stroke="#e9eef4" stroke-width="1"/>
<text x="481.86" y="612" text-anchor="middle" font-family="Arial, sans-serif" font-size="13" fill="#607487">-200.7</text>
<line x1="544.62" y1="116" x2="544.62" y2="568" stroke="#e9eef4" stroke-width="1"/>
<text x="544.62" y="612" text-anchor="middle" font-family="Arial, sans-serif" font-size="13" fill="#607487">-148.0</text>
<line x1="607.38" y1="116" x2="607.38" y2="568" stroke="#e9eef4" stroke-width="1"/>
<text x="607.38" y="612" text-anchor="middle" font-family="Arial, sans-serif" font-size="13" fill="#607487">-95.2</text>
<line x1="670.14" y1="116" x2="670.14" y2="568" stroke="#e9eef4" stroke-width="1"/>
<text x="670.14" y="612" text-anchor="middle" font-family="Arial, sans-serif" font-size="13" fill="#607487">-42.4</text>
<line x1="732.90" y1="116" x2="732.90" y2="568" stroke="#e9eef4" stroke-width="1"/>
<text x="732.90" y="612" text-anchor="middle" font-family="Arial, sans-serif" font-size="13" fill="#607487">10.4</text>
<line x1="96" y1="568.00" x2="1056" y2="568.00" stroke="#e9eef4" stroke-width="1"/>
<text x="84" y="572.00" text-anchor="end" font-family="Arial, sans-serif" font-size="13" fill="#607487">-47.5</text>
<line x1="96" y1="477.60" x2="1056" y2="477.60" stroke="#e9eef4" stroke-width="1"/>
<text x="84" y="481.60" text-anchor="end" font-family="Arial, sans-serif" font-size="13" fill="#607487">28.6</text>
<line x1="96" y1="387.20" x2="1056" y2="387.20" stroke="#e9eef4" stroke-width="1"/>
<text x="84" y="391.20" text-anchor="end" font-family="Arial, sans-serif" font-size="13" fill="#607487">104.6</text>
<line x1="96" y1="296.80" x2="1056" y2="296.80" stroke="#e9eef4" stroke-width="1"/>
<text x="84" y="300.80" text-anchor="end" font-family="Arial, sans-serif" font-size="13" fill="#607487">180.6</text>
<line x1="96" y1="206.40" x2="1056" y2="206.40" stroke="#e9eef4" stroke-width="1"/>
<text x="84" y="210.40" text-anchor="end" font-family="Arial, sans-serif" font-size="13" fill="#607487">256.6</text>
<line x1="96" y1="116.00" x2="1056" y2="116.00" stroke="#e9eef4" stroke-width="1"/>
<text x="84" y="120.00" text-anchor="end" font-family="Arial, sans-serif" font-size="13" fill="#607487">332.6</text>
<polyline points="720.58,511.57 720.58,511.48 720.58,511.39 720.58,511.29 720.58,511.17 720.58,511.05 720.58,510.92 720.58,510.79 720.57,510.64 720.57,510.50 720.57,510.34 720.57,510.18 720.57,510.01 720.57,509.85 720.56,509.67 720.56,509.49 720.56,509.30 720.56,509.11 720.55,508.92 720.55,508.72 720.55,508.52 720.55,508.31 720.54,508.10 720.54,507.89 720.54,507.67 720.53,507.45 720.53,507.23 720.53,507.01 720.53,506.78 720.52,506.55 720.52,506.31 720.52,506.07 720.51,505.83 720.51,505.59 720.51,505.34 720.51,505.09 720.51,504.84 720.50,504.58 720.50,504.32 720.49,504.06 720.49,503.80 720.49,503.53 720.48,503.26 720.48,502.98 720.48,502.71 720.47,502.43 720.47,502.15 720.47,501.87 720.47,501.59 720.46,501.30 720.46,501.01 720.46,500.72 720.45,500.42 720.45,500.13 720.44,499.83 720.44,499.53 720.43,499.24 720.43,498.96 720.42,498.67 720.42,498.39 720.41,498.11 720.40,497.83 720.40,497.56 720.39,497.28 720.39,497.00 720.38,496.72 720.37,496.45 720.36,496.17 720.35,495.91 720.33,495.64 720.32,495.38 720.30,495.13 720.28,494.89 720.25,494.64 720.22,494.41 720.18,494.18 720.14,493.96 720.09,493.74 720.03,493.52 719.97,493.30 719.90,493.10 719.82,492.89 719.74,492.70 719.64,492.50 719.54,492.31 719.43,492.12 719.30,491.95 719.17,491.77 719.03,491.60 718.89,491.45 718.74,491.29 718.59,491.14 718.43,491.00 718.26,490.86 718.09,490.73 717.91,490.62 717.73,490.51 717.54,490.41 717.35,490.32 717.16,490.23 716.97,490.15 716.77,490.07 716.58,490.01 716.38,489.95 716.18,489.89 715.98,489.84 715.77,489.80 715.56,489.76 715.34,489.73 715.13,489.70 714.91,489.68 714.69,489.65 714.46,489.63 714.22,489.61 713.99,489.59 713.74,489.56 713.50,489.54 713.25,489.51 712.99,489.49 712.74,489.47 712.47,489.45 712.21,489.43 711.94,489.41 711.67,489.40 711.40,489.38 711.12,489.37 710.83,489.35 710.55,489.34 710.26,489.32 709.97,489.31 709.69,489.29 709.40,489.28 709.12,489.27 708.84,489.27 708.57,489.26 708.29,489.25 708.02,489.25 707.74,489.25 707.47,489.25 707.21,489.25 706.94,489.24 706.67,489.24 706.41,489.25 706.15,489.25 705.89,489.26 705.63,489.26 705.37,489.26 705.11,489.26 704.84,489.27 704.58,489.28 704.31,489.28 704.03,489.29 703.76,489.30 703.49,489.31 703.21,489.32 702.92,489.33 702.63,489.33 702.34,489.35 702.05,489.36 701.76,489.37 701.45,489.38 701.15,489.39 700.85,489.41 700.54,489.42 700.22,489.44 699.91,489.44 699.58,489.46 699.26,489.47 698.93,489.49 698.60,489.50 698.26,489.52 697.92,489.54 697.58,489.56 697.24,489.57 696.89,489.59 696.55,489.61 696.19,489.62 695.84,489.64 695.50,489.66 695.15,489.67 694.79,489.68 694.44,489.70 694.10,489.71 693.75,489.73 693.40,489.74 693.05,489.76 692.70,489.77 692.35,489.79 692.00,489.80 691.65,489.82 691.29,489.83 690.94,489.85 690.58,489.87 690.22,489.88 689.86,489.90 689.48,489.91 689.12,489.92 688.75,489.94 688.38,489.95 688.00,489.97 687.62,489.99 687.23,490.00 686.84,490.02 686.45,490.04 686.07,490.05 685.68,490.07 685.29,490.09 684.90,490.10 684.51,490.12 684.13,490.14 683.75,490.15 683.37,490.16 682.98,490.18 682.58,490.19 682.19,490.21 681.78,490.23 681.38,490.25 680.97,490.26 680.56,490.28 680.15,490.30 679.73,490.32 679.32,490.33 678.90,490.35 678.48,490.37 678.06,490.39 677.63,490.40 677.21,490.42 676.79,490.44 676.36,490.45 675.93,490.47 675.50,490.49 675.07,490.51 674.64,490.53 674.21,490.54 673.78,490.56 673.35,490.58 672.92,490.60 672.48,490.62 672.06,490.64 671.62,490.65 671.19,490.67 670.76,490.69 670.33,490.71 669.90,490.72 669.46,490.74 669.02,490.75 668.59,490.76 668.16,490.78 667.72,490.79 667.28,490.81 666.84,490.82 666.40,490.83 665.97,490.84 665.53,490.85 665.09,490.86 664.67,490.86 664.25,490.86 663.82,490.86 663.40,490.86 662.97,490.88 662.55,490.89 662.12,490.91 661.69,490.91 661.27,490.91 660.85,490.92 660.44,490.93 660.03,490.95 659.61,490.98 659.20,490.99 658.79,491.01 658.37,491.02 657.95,491.04 657.53,491.07 657.11,491.09 656.69,491.11 656.27,491.13 655.85,491.16 655.42,491.18 654.99,491.20 654.56,491.23 654.13,491.26 653.69,491.28 653.26,491.30 652.82,491.33 652.38,491.35 651.93,491.37 651.49,491.40 651.05,491.43 650.61,491.45 650.16,491.48 649.72,491.50 649.28,491.53 648.83,491.56 648.39,491.59 647.95,491.62 647.51,491.65 647.07,491.68 646.63,491.71 646.20,491.74 645.77,491.77 645.34,491.79 644.91,491.82 644.48,491.86 644.06,491.90 643.63,491.94 643.20,491.98 642.77,492.03 642.34,492.08 641.91,492.12 641.49,492.15 641.06,492.17 640.64,492.20 640.22,492.25 639.81,492.31 639.40,492.36 638.99,492.38 638.59,492.40 638.19,492.42 637.78,492.44 637.40,492.48 637.00,492.52 636.62,492.54 636.23,492.57 635.85,492.59 635.48,492.61 635.12,492.64 634.75,492.67 634.38,492.69 634.02,492.72 633.66,492.74 633.30,492.76 632.94,492.79 632.58,492.81 632.23,492.83 631.88,492.85 631.54,492.87 631.19,492.90 630.84,492.92 630.50,492.94 630.15,492.96 629.80,492.98 629.44,493.00 629.09,493.01 628.73,493.03 628.37,493.05 628.01,493.07 627.64,493.09 627.27,493.11 626.91,493.12 626.53,493.14 626.16,493.16 625.79,493.17 625.41,493.18 625.03,493.20 624.65,493.21 624.27,493.22 623.89,493.23 623.51,493.24 623.13,493.25 622.75,493.26 622.36,493.26 621.97,493.27 621.59,493.28 621.20,493.29 620.81,493.30 620.42,493.31 620.03,493.32 619.64,493.33 619.25,493.33 618.86,493.34 618.46,493.35 618.06,493.35 617.67,493.36 617.27,493.37 616.88,493.38 616.47,493.39 616.08,493.40 615.68,493.41 615.28,493.43 614.88,493.44 614.48,493.45 614.08,493.47 613.68,493.48 613.28,493.50 612.88,493.52 612.47,493.54 612.07,493.56 611.67,493.58 611.26,493.60 610.86,493.62 610.44,493.65 610.03,493.68 609.62,493.70 609.20,493.73 608.78,493.75 608.37,493.78 607.94,493.80 607.52,493.83 607.09,493.86 606.67,493.88 606.23,493.91 605.80,493.94 605.37,493.97 604.93,493.99 604.49,494.02 604.04,494.05 603.59,494.08 603.14,494.11 602.70,494.13 602.24,494.16 601.79,494.19 601.33,494.21 600.87,494.24 600.41,494.27 599.95,494.30 599.49,494.33 599.02,494.35 598.55,494.38 598.08,494.41 597.61,494.43 597.14,494.46 596.66,494.49 596.18,494.52 595.70,494.55 595.22,494.57 594.73,494.60 594.24,494.62 593.75,494.65 593.26,494.67 592.77,494.70 592.28,494.73 591.79,494.76 591.30,494.78 590.81,494.81 590.33,494.84 589.87,494.87 589.39,494.89 588.92,494.92 588.45,494.95 587.98,494.97 587.52,495.00 587.06,495.03 586.61,495.05 586.16,495.08 585.71,495.11 585.27,495.13 584.83,495.16 584.39,495.19 583.96,495.21 583.53,495.24 583.15,495.26 582.71,495.29 582.28,495.31 581.85,495.34 581.42,495.36 580.99,495.39 580.57,495.41 580.14,495.44 579.71,495.46 579.29,495.49 578.87,495.51 578.45,495.54 578.03,495.56 577.62,495.59 577.22,495.62 576.83,495.65 576.43,495.67 576.04,495.70 575.64,495.72 575.25,495.75 574.87,495.78 574.49,495.81 574.11,495.83 573.74,495.86 573.37,495.88 573.00,495.91 572.64,495.94 572.28,495.97 571.92,495.99 571.57,496.02 571.21,496.05 570.85,496.07 570.49,496.10 570.12,496.13 569.75,496.16 569.39,496.19 569.03,496.21 568.66,496.24 568.31,496.27 567.96,496.29 567.61,496.31 567.26,496.34 566.92,496.36 566.57,496.38 566.24,496.41 565.90,496.42 565.56,496.44 565.24,496.46 564.91,496.48 564.59,496.49 564.28,496.51 563.97,496.53 563.65,496.54 563.35,496.55 563.04,496.57 562.74,496.58 562.44,496.59 562.15,496.60 561.88,496.61 561.61,496.62 561.34,496.63 561.07,496.64 560.79,496.64 560.52,496.65 560.25,496.66 559.98,496.66 559.71,496.68 559.42,496.69 559.14,496.69 558.86,496.69 558.59,496.70 558.33,496.71 558.08,496.72 557.82,496.72 557.56,496.73 557.31,496.73 557.05,496.74 556.79,496.75 556.55,496.76 556.30,496.76 556.03,496.76 555.76,496.77 555.48,496.77 555.21,496.78 554.93,496.79 554.65,496.80 554.37,496.80 554.09,496.81 553.80,496.82 553.51,496.83 553.22,496.84 552.93,496.85 552.63,496.86 552.32,496.87 552.01,496.88 551.70,496.89 551.38,496.90 551.06,496.91 550.73,496.92 550.39,496.94 550.05,496.95 549.71,496.96 549.36,496.98 549.00,496.99 548.64,497.01 548.27,497.02 547.90,497.03 547.53,497.05 547.15,497.06 546.76,497.08 546.37,497.10 545.98,497.11 545.58,497.13 545.18,497.14 544.77,497.16 544.37,497.18 543.95,497.19 543.54,497.21 543.13,497.23 542.72,497.25 542.30,497.27 541.88,497.29 541.45,497.32 541.03,497.34 540.60,497.36 540.17,497.39 539.74,497.41 539.31,497.44 538.87,497.47 538.43,497.50 537.99,497.53 537.54,497.55 537.10,497.58 536.65,497.61 536.21,497.64 535.76,497.67 535.32,497.70 534.88,497.73 534.44,497.76 534.00,497.79 533.56,497.82 533.13,497.85 532.69,497.88 532.25,497.91 531.81,497.94 531.37,497.97 530.93,498.00 530.48,498.03 530.03,498.06 529.58,498.10 529.13,498.13 528.67,498.16 528.21,498.19 527.75,498.22 527.28,498.25 526.81,498.28 526.34,498.32 525.87,498.36 525.39,498.40 524.91,498.44 524.43,498.47 523.94,498.51 523.46,498.56 522.97,498.60 522.48,498.65 521.99,498.70 521.49,498.74 520.99,498.80 520.50,498.86 520.00,498.94 519.50,499.01 518.99,499.08 518.49,499.16 517.98,499.24 517.47,499.33 516.96,499.42 516.46,499.52 515.94,499.62 515.44,499.73 514.93,499.84 514.42,499.96 513.92,500.08 513.42,500.21 512.92,500.34 512.43,500.48 511.94,500.62 511.45,500.76 510.97,500.91 510.50,501.06 510.02,501.22 509.55,501.39 509.07,501.55 508.60,501.73 508.14,501.90 507.67,502.09 507.21,502.27 506.75,502.46 506.29,502.66 505.83,502.86 505.38,503.07 504.92,503.28 504.47,503.49 504.02,503.71 503.58,503.92 503.13,504.14 502.68,504.36 502.24,504.59 501.80,504.82 501.36,505.06 500.93,505.29 500.49,505.52 500.06,505.76 499.62,506.00 499.19,506.23 498.76,506.47 498.32,506.70 497.90,506.93 497.47,507.17 497.05,507.41 496.63,507.64 496.21,507.88 495.79,508.11 495.38,508.34 494.97,508.57 494.56,508.80 494.16,509.02 493.76,509.25 493.37,509.47 492.98,509.69 492.59,509.91 492.20,510.13 491.81,510.35 491.43,510.56 491.05,510.78 490.68,510.99 490.31,511.20 489.94,511.41 489.57,511.62 489.21,511.82 488.85,512.02 488.50,512.21 488.17,512.40 487.86,512.58 487.55,512.75 487.27,512.91 486.99,513.07 486.74,513.22 486.50,513.35 486.27,513.49 486.06,513.61 485.85,513.73 485.64,513.84 485.44,513.96 485.25,514.06 485.07,514.17 484.89,514.26 484.73,514.36 484.57,514.45 484.43,514.53 484.29,514.61 484.17,514.68 484.05,514.74 483.94,514.80 483.85,514.86 483.76,514.91 483.68,514.95 483.60,514.99 483.54,515.03 483.48,515.06 483.43,515.09 483.38,515.12 483.34,515.14 483.30,515.16 483.26,515.18 483.23,515.20 483.19,515.22 483.16,515.24 483.13,515.26 483.09,515.28 483.06,515.30 483.03,515.31 483.00,515.33 482.97,515.35 482.94,515.37 482.91,515.38 482.88,515.40 482.84,515.42 482.80,515.44 482.76,515.47 482.71,515.50 482.65,515.53 482.58,515.56 482.51,515.60 482.43,515.65 482.35,515.69 482.26,515.74 482.17,515.79 482.06,515.85 481.93,515.91 481.80,515.97 481.65,516.04 481.48,516.12 481.30,516.19 481.10,516.27 480.89,516.36 480.67,516.46 480.43,516.55 480.17,516.63 479.89,516.72 479.60,516.81 479.29,516.89 478.96,516.97 478.62,517.04 478.26,517.11 477.88,517.17 477.49,517.23 477.09,517.29 476.66,517.32 476.23,517.35 475.78,517.36 475.32,517.35 474.85,517.33 474.38,517.31 473.89,517.27 473.40,517.21 472.91,517.13 472.41,517.01 471.91,516.88 471.41,516.73 470.91,516.58 470.40,516.41 469.91,516.21 469.41,515.99 468.92,515.74 468.43,515.48 467.93,515.20 467.45,514.90 466.97,514.59 466.51,514.26 466.06,513.91 465.62,513.56 465.19,513.19 464.77,512.80 464.35,512.40 463.95,512.00 463.56,511.58 463.17,511.15 462.79,510.72 462.42,510.29 462.05,509.85 461.70,509.41 461.35,508.97 461.01,508.52 460.68,508.07 460.35,507.62 460.02,507.17 459.69,506.72 459.36,506.27 459.02,505.83 458.69,505.38 458.36,504.92 458.02,504.46 457.69,504.01 457.35,503.55 457.02,503.09 456.68,502.62 456.34,502.16 456.00,501.69 455.66,501.22 455.32,500.75 454.98,500.27 454.64,499.79 454.30,499.31 453.96,498.83 453.62,498.34 453.28,497.85 452.94,497.35 452.60,496.86 452.26,496.36 451.92,495.85 451.58,495.35 451.24,494.84 450.90,494.33 450.56,493.81 450.22,493.30 449.88,492.78 449.54,492.25 449.21,491.73 448.87,491.20 448.54,490.67 448.21,490.14 447.88,489.59 447.55,489.06 447.22,488.52 446.90,487.97 446.57,487.43 446.25,486.88 445.93,486.32 445.61,485.77 445.29,485.20 444.97,484.63 444.66,484.07 444.35,483.49 444.04,482.91 443.73,482.33 443.43,481.74 443.13,481.15 442.82,480.55 442.52,479.96 442.23,479.36 441.94,478.75 441.65,478.14 441.36,477.53 441.07,476.91 440.79,476.29 440.51,475.67 440.24,475.04 439.96,474.41 439.69,473.77 439.43,473.13 439.16,472.49 438.90,471.84 438.65,471.20 438.40,470.55 438.15,469.89 437.90,469.24 437.66,468.57 437.42,467.91 437.19,467.24 436.96,466.57 436.73,465.89 436.50,465.21 436.29,464.54 436.07,463.86 435.86,463.17 435.65,462.49 435.45,461.81 435.25,461.12 435.06,460.43 434.87,459.75 434.68,459.07 434.50,458.39 434.33,457.71 434.16,457.03 433.99,456.35 433.83,455.67 433.67,454.99 433.52,454.32 433.37,453.64 433.23,452.97 433.10,452.31 432.96,451.64 432.83,450.97 432.71,450.30 432.59,449.63 432.47,448.96 432.36,448.28 432.25,447.61 432.14,446.93 432.04,446.25 431.94,445.57 431.85,444.88 431.76,444.20 431.68,443.51 431.60,442.83 431.52,442.16 431.45,441.47 431.38,440.78 431.32,440.08 431.25,439.39 431.20,438.70 431.14,438.00 431.09,437.30 431.05,436.60 431.00,435.90 430.97,435.20 430.93,434.50 430.90,433.80 430.86,433.09 430.84,432.38 430.81,431.68 430.79,430.98 430.77,430.27 430.75,429.56 430.74,428.85 430.73,428.14 430.72,427.43 430.72,426.71 430.72,426.00 430.73,425.29 430.74,424.57 430.75,423.86 430.77,423.15 430.79,422.43 430.82,421.72 430.84,421.02 430.88,420.31 430.92,419.59 430.96,418.88 431.01,418.16 431.07,417.46 431.13,416.75 431.19,416.04 431.26,415.33 431.34,414.62 431.42,413.92 431.50,413.21 431.59,412.50 431.68,411.79 431.78,411.09 431.89,410.40 431.99,409.70 432.10,408.99 432.22,408.28 432.33,407.57 432.45,406.87 432.57,406.16 432.70,405.44 432.82,404.74 432.95,404.03 433.07,403.32 433.20,402.60 433.33,401.89 433.47,401.18 433.60,400.47 433.73,399.77 433.87,399.06 434.01,398.34 434.14,397.63 434.28,396.92 434.41,396.20 434.55,395.49 434.69,394.77 434.83,394.06 434.96,393.34 435.10,392.62 435.24,391.90 435.39,391.19 435.53,390.47 435.67,389.75 435.82,389.05 435.96,388.33 436.10,387.61 436.25,386.89 436.39,386.17 436.54,385.44 436.69,384.72 436.83,384.00 436.98,383.28 437.13,382.56 437.27,381.83 437.42,381.11 437.57,380.38 437.72,379.66 437.87,378.94 438.03,378.23 438.19,377.51 438.34,376.78 438.50,376.06 438.65,375.34 438.81,374.62 438.97,373.90 439.12,373.18 439.28,372.47 439.44,371.76 439.60,371.04 439.76,370.33 439.92,369.62 440.08,368.92 440.24,368.21 440.40,367.50 440.56,366.80 440.72,366.10 440.87,365.39 441.03,364.69 441.18,363.99 441.34,363.29 441.49,362.59 441.65,361.89 441.80,361.20 441.95,360.50 442.10,359.81 442.25,359.11 442.41,358.42 442.56,357.72 442.71,357.03 442.86,356.33 443.00,355.64 443.15,354.95 443.30,354.25 443.45,353.55 443.59,352.86 443.74,352.16 443.89,351.46 444.03,350.77 444.18,350.07 444.32,349.37 444.46,348.67 444.61,347.96 444.75,347.27 444.89,346.58 445.03,345.88 445.17,345.18 445.31,344.48 445.45,343.78 445.58,343.07 445.72,342.37 445.86,341.67 446.00,340.97 446.14,340.27 446.28,339.57 446.43,338.87 446.57,338.17 446.71,337.46 446.85,336.76 447.00,336.08 447.14,335.37 447.29,334.68 447.44,333.97 447.58,333.27 447.73,332.58 447.88,331.88 448.03,331.18 448.18,330.49 448.33,329.79 448.48,329.09 448.63,328.40 448.77,327.70 448.92,327.01 449.07,326.31 449.23,325.63 449.38,324.94 449.53,324.24 449.68,323.53 449.83,322.84 449.98,322.14 450.13,321.44 450.28,320.73 450.44,320.04 450.59,319.34 450.74,318.64 450.89,317.96 451.04,317.28 451.19,316.60 451.34,315.93 451.50,315.27 451.65,314.60 451.80,313.93 451.94,313.27 452.09,312.61 452.23,311.95 452.37,311.30 452.52,310.65 452.66,309.99 452.81,309.34 452.95,308.69 453.10,308.04 453.24,307.39 453.39,306.73 453.53,306.09 453.69,305.44 453.83,304.79 453.97,304.14 454.12,303.49 454.26,302.84 454.41,302.19 454.56,301.54 454.70,300.89 454.85,300.24 454.99,299.60 455.14,298.95 455.28,298.30 455.42,297.66 455.57,297.02 455.71,296.38 455.85,295.74 455.99,295.10 456.13,294.46 456.28,293.82 456.42,293.18 456.56,292.54 456.70,291.90 456.84,291.26 456.98,290.61 457.12,289.97 457.26,289.32 457.40,288.68 457.54,288.03 457.68,287.37 457.82,286.73 457.97,286.09 458.11,285.43 458.25,284.78 458.40,284.12 458.54,283.47 458.68,282.81 458.82,282.15 458.97,281.50 459.11,280.84 459.25,280.17 459.39,279.52 459.54,278.85 459.68,278.19 459.82,277.52 459.96,276.86 460.10,276.20 460.25,275.53 460.39,274.87 460.53,274.19 460.67,273.52 460.81,272.85 460.95,272.18 461.09,271.50 461.23,270.83 461.37,270.15 461.51,269.47 461.65,268.79 461.79,268.12 461.92,267.43 462.06,266.75 462.20,266.07 462.34,265.40 462.48,264.72 462.62,264.03 462.76,263.35 462.90,262.67 463.05,261.99 463.19,261.31 463.33,260.62 463.48,259.93 463.62,259.25 463.77,258.56 463.91,257.88 464.05,257.19 464.20,256.51 464.35,255.85 464.49,255.17 464.64,254.49 464.78,253.81 464.93,253.14 465.08,252.46 465.23,251.80 465.38,251.13 465.53,250.46 465.68,249.80 465.83,249.15 465.98,248.50 466.13,247.85 466.28,247.21 466.43,246.57 466.58,245.94 466.73,245.31 466.87,244.68 467.02,244.06 467.17,243.44 467.31,242.82 467.46,242.21 467.61,241.60 467.75,240.99 467.90,240.38 468.05,239.77 468.19,239.17 468.35,238.56 468.50,237.95 468.65,237.34 468.80,236.73 468.96,236.12 469.12,235.51 469.27,234.91 469.43,234.30 469.60,233.69 469.76,233.09 469.92,232.48 470.09,231.88 470.26,231.27 470.42,230.67 470.60,230.07 470.77,229.47 470.95,228.87 471.12,228.28 471.31,227.68 471.49,227.09 471.68,226.49 471.87,225.90 472.06,225.32 472.26,224.73 472.46,224.14 472.66,223.55 472.87,222.97 473.07,222.39 473.28,221.82 473.50,221.25 473.71,220.68 473.93,220.11 474.16,219.55 474.38,218.99 474.61,218.42 474.84,217.86 475.08,217.30 475.31,216.74 475.56,216.18 475.80,215.63 476.05,215.08 476.30,214.53 476.56,213.98 476.82,213.43 477.08,212.88 477.35,212.34 477.61,211.79 477.89,211.25 478.16,210.72 478.43,210.18 478.71,209.65 478.99,209.11 479.27,208.57 479.56,208.04 479.84,207.50 480.12,206.97 480.41,206.44 480.70,205.91 480.99,205.39 481.28,204.86 481.58,204.33 481.88,203.80 482.18,203.28 482.48,202.77 482.79,202.24 483.10,201.73 483.41,201.21 483.72,200.69 484.04,200.17 484.37,199.65 484.69,199.14 485.01,198.62 485.34,198.10 485.67,197.59 486.00,197.08 486.33,196.57 486.66,196.06 487.00,195.56 487.33,195.06 487.67,194.55 488.01,194.04 488.36,193.54 488.70,193.03 489.05,192.53 489.40,192.02 489.75,191.52 490.11,191.03 490.47,190.53 490.83,190.03 491.19,189.54 491.56,189.04 491.93,188.55 492.30,188.05 492.68,187.56 493.06,187.07 493.44,186.58 493.83,186.10 494.22,185.60 494.62,185.12 495.02,184.62 495.42,184.13 495.83,183.65 496.24,183.16 496.65,182.67 497.07,182.18 497.49,181.70 497.92,181.21 498.34,180.72 498.78,180.25 499.21,179.76 499.65,179.28 500.09,178.79 500.53,178.32 500.98,177.84 501.44,177.35 501.90,176.88 502.36,176.40 502.82,175.93 503.29,175.46 503.76,174.99 504.23,174.51 504.71,174.05 505.19,173.58 505.68,173.12 506.16,172.66 506.65,172.19 507.14,171.73 507.63,171.27 508.14,170.81 508.64,170.35 509.14,169.89 509.64,169.43 510.15,168.98 510.66,168.52 511.18,168.07 511.70,167.62 512.22,167.16 512.74,166.72 513.27,166.27 513.80,165.82 514.33,165.38 514.87,164.93 515.41,164.49 515.95,164.05 516.50,163.61 517.04,163.18 517.59,162.75 518.14,162.32 518.70,161.89 519.25,161.47 519.80,161.06 520.37,160.64 520.93,160.23 521.49,159.82 522.06,159.41 522.63,159.01 523.20,158.60 523.78,158.20 524.36,157.81 524.94,157.41 525.52,157.03 526.11,156.64 526.69,156.26 527.27,155.89 527.85,155.52 528.43,155.16 529.01,154.81 529.60,154.46 530.18,154.10 530.77,153.75 531.36,153.41 531.94,153.07 532.54,152.73 533.13,152.40 533.73,152.06 534.33,151.73 534.93,151.41 535.53,151.08 536.15,150.76 536.75,150.45 537.37,150.13 537.99,149.82 538.61,149.52 539.23,149.21 539.85,148.91 540.47,148.62 541.11,148.33 541.74,148.04 542.38,147.76 543.01,147.49 543.66,147.21 544.30,146.94 544.95,146.68 545.59,146.42 546.25,146.16 546.90,145.90 547.55,145.64 548.21,145.39 548.86,145.15 549.52,144.90 550.18,144.66 550.84,144.42 551.51,144.19 552.18,143.95 552.84,143.73 553.51,143.50 554.18,143.28 554.86,143.06 555.53,142.85 556.20,142.63 556.88,142.43 557.56,142.23 558.23,142.03 558.90,141.82 559.58,141.63 560.26,141.44 560.94,141.25 561.62,141.07 562.31,140.89 562.99,140.71 563.67,140.54 564.35,140.37 565.03,140.20 565.72,140.04 566.40,139.88 567.08,139.72 567.77,139.56 568.45,139.41 569.13,139.26 569.82,139.12 570.50,138.98 571.17,138.84 571.86,138.71 572.54,138.58 573.22,138.45 573.90,138.33 574.58,138.21 575.26,138.09 575.94,137.98 576.62,137.87 577.29,137.76 577.98,137.65 578.65,137.55 579.33,137.45 580.01,137.35 580.69,137.26 581.37,137.17 582.04,137.08 582.72,137.00 583.40,136.92 584.07,136.84 584.75,136.77 585.42,136.70 586.10,136.64 586.77,136.57 587.45,136.52 588.13,136.46 588.79,136.41 589.46,136.35 590.13,136.30 590.81,136.26 591.48,136.22 592.15,136.18 592.82,136.14 593.50,136.10 594.17,136.07 594.85,136.04 595.51,136.01 596.19,135.98 596.86,135.96 597.53,135.93 598.19,135.91 598.86,135.89 599.53,135.86 600.20,135.84 600.87,135.82 601.53,135.80 602.20,135.78 602.86,135.76 603.54,135.74 604.20,135.72 604.86,135.70 605.53,135.68 606.20,135.65 606.86,135.63 607.53,135.61 608.19,135.59 608.85,135.56 609.51,135.53 610.17,135.51 610.83,135.48 611.49,135.45 612.14,135.42 612.79,135.40 613.45,135.37 614.10,135.34 614.75,135.30 615.40,135.27 616.04,135.24 616.69,135.21 617.33,135.18 617.97,135.15 618.61,135.12 619.26,135.08 619.89,135.05 620.53,135.03 621.17,135.00 621.80,134.97 622.45,134.94 623.08,134.91 623.71,134.88 624.35,134.86 624.99,134.83 625.62,134.81 626.26,134.78 626.89,134.76 627.53,134.74 628.17,134.72 628.80,134.68 629.43,134.66 630.07,134.64 630.70,134.61 631.33,134.59 631.96,134.56 632.59,134.54 633.22,134.52 633.85,134.49 634.49,134.47 635.12,134.44 635.76,134.41 636.38,134.39 637.02,134.36 637.65,134.34 638.27,134.31 638.91,134.28 639.54,134.25 640.17,134.22 640.80,134.19 641.43,134.16 642.06,134.14 642.69,134.11 643.33,134.08 643.96,134.05 644.59,134.02 645.22,133.99 645.86,133.97 646.49,133.94 647.13,133.91 647.76,133.89 648.38,133.87 649.02,133.84 649.65,133.82 650.28,133.80 650.92,133.78 651.55,133.76 652.18,133.74 652.82,133.71 653.45,133.69 654.08,133.67 654.71,133.65 655.35,133.63 655.99,133.62 656.61,133.60 657.24,133.59 657.87,133.58 658.50,133.56 659.13,133.55 659.75,133.54 660.37,133.52 661.00,133.51 661.62,133.50 662.25,133.49 662.87,133.48 663.49,133.46 664.11,133.45 664.73,133.43 665.35,133.42 665.97,133.41 666.59,133.40 667.20,133.38 667.81,133.37 668.43,133.36 669.04,133.35 669.66,133.34 670.27,133.33 670.88,133.32 671.48,133.31 672.09,133.30 672.70,133.29 673.31,133.28 673.91,133.27 674.52,133.26 675.14,133.24 675.74,133.23 676.35,133.22 676.95,133.20 677.56,133.19 678.16,133.17 678.77,133.15 679.37,133.13 679.98,133.11 680.58,133.08 681.18,133.06 681.77,133.04 682.37,133.01 682.96,132.99 683.55,132.96 684.14,132.94 684.72,132.91 685.30,132.89 685.88,132.86 686.46,132.84 687.04,132.82 687.63,132.80 688.21,132.79 688.80,132.77 689.38,132.76 689.95,132.75 690.52,132.74 691.09,132.74 691.65,132.74 692.20,132.76 692.75,132.78 693.30,132.81 693.83,132.85 694.37,132.89 694.90,132.95 695.42,133.02 695.93,133.10 696.44,133.21 696.94,133.33 697.42,133.46 697.89,133.61 698.36,133.78 698.82,133.95 699.26,134.13 699.70,134.33 700.13,134.53 700.55,134.77 700.96,135.00 701.35,135.24 701.73,135.49 702.10,135.76 702.45,136.02 702.80,136.30 703.14,136.60 703.47,136.90 703.78,137.19 704.08,137.49 704.39,137.80 704.67,138.11 704.94,138.44 705.20,138.77 705.44,139.12 705.67,139.46 705.90,139.81 706.12,140.16 706.33,140.53 706.52,140.90 706.69,141.28 706.86,141.66 707.01,142.05 707.14,142.44 707.28,142.84 707.42,143.24 707.53,143.65 707.63,144.06 707.73,144.48 707.81,144.91 707.88,145.34 707.94,145.77 708.00,146.20 708.06,146.63 708.11,147.07 708.16,147.51 708.20,147.96 708.24,148.41 708.28,148.86 708.32,149.32 708.36,149.78 708.41,150.25 708.44,150.72 708.48,151.20 708.51,151.68 708.54,152.18 708.57,152.66 708.61,153.17 708.64,153.67 708.67,154.17 708.70,154.68 708.72,155.20 708.75,155.73 708.77,156.25 708.79,156.78 708.81,157.32 708.84,157.85 708.86,158.39 708.88,158.94 708.89,159.49 708.91,160.05 708.92,160.60 708.94,161.16 708.95,161.72 708.97,162.29 708.99,162.85 709.01,163.42 709.03,163.98 709.04,164.56 709.06,165.13 709.07,165.71 709.09,166.28 709.10,166.86 709.12,167.44 709.13,168.03 709.15,168.62 709.16,169.20 709.18,169.79 709.19,170.38 709.21,170.97 709.22,171.56 709.24,172.15 709.25,172.75 709.26,173.33 709.26,173.93 709.27,174.53 709.28,175.12 709.28,175.72 709.29,176.32 709.29,176.92 709.29,177.50 709.28,178.09 709.28,178.67 709.29,179.25 709.30,179.84 709.29,180.43 709.27,181.02 709.27,181.60 709.27,182.19 709.27,182.77 709.27,183.34 709.27,183.92 709.26,184.50 709.26,185.09 709.25,185.68 709.25,186.27 709.25,186.85 709.25,187.42 709.24,188.00 709.24,188.57 709.24,189.14 709.24,189.72 709.24,190.28 709.24,190.86 709.24,191.43 709.25,192.01 709.25,192.58 709.25,193.16 709.26,193.73 709.26,194.31 709.27,194.89 709.27,195.47 709.28,196.05 709.29,196.63 709.30,197.22 709.31,197.80 709.32,198.40 709.33,198.99 709.34,199.58 709.35,200.18 709.36,200.78 709.37,201.37 709.39,201.97 709.39,202.56 709.41,203.14 709.42,203.74 709.43,204.33 709.44,204.93 709.45,205.53 709.47,206.12 709.48,206.71 709.50,207.30 709.51,207.88 709.53,208.46 709.54,209.05 709.55,209.63 709.57,210.22 709.58,210.80 709.59,211.38 709.61,211.95 709.62,212.53 709.64,213.11 709.65,213.69 709.67,214.26 709.68,214.83 709.70,215.39 709.71,215.95 709.73,216.50 709.76,217.05 709.78,217.59 709.79,218.14 709.81,218.69 709.83,219.25 709.85,219.80 709.87,220.35 709.89,220.90 709.91,221.46 709.93,222.01 709.94,222.57 709.96,223.12 709.99,223.68 710.01,224.23 710.03,224.78 710.05,225.33 710.08,225.87 710.11,226.41 710.13,226.93 710.15,227.46 710.17,227.99 710.19,228.50 710.21,229.03 710.23,229.55 710.24,230.07 710.26,230.60 710.28,231.12 710.31,231.64 710.33,232.17 710.34,232.70 710.36,233.21 710.38,233.72 710.42,234.21 710.47,234.70 710.49,235.20 710.50,235.69 710.52,236.17 710.54,236.67 710.56,237.16 710.59,237.65 710.62,238.13 710.64,238.60 710.65,239.06 710.65,239.51 710.66,239.94 710.67,240.36 710.68,240.79 710.69,241.21 710.70,241.65 710.72,242.09 710.73,242.53 710.75,242.97 710.76,243.43 710.77,243.88 710.78,244.33 710.79,244.78 710.81,245.24 710.82,245.69 710.83,246.14 710.84,246.60 710.86,247.06 710.87,247.52 710.89,247.99 710.90,248.46 710.91,248.93 710.93,249.40 710.95,249.87 710.96,250.34 710.98,250.82 710.99,251.31 711.01,251.80 711.02,252.29 711.03,252.79 711.05,253.30 711.07,253.80 711.08,254.32 711.09,254.83 711.11,255.35 711.13,255.87 711.14,256.41 711.16,256.94 711.17,257.48 711.19,258.03 711.21,258.57 711.23,259.12 711.25,259.67 711.27,260.23 711.28,260.80 711.30,261.37 711.32,261.93 711.34,262.50 711.36,263.07 711.37,263.65 711.39,264.22 711.41,264.80 711.42,265.38 711.44,265.97 711.46,266.55 711.47,267.12 711.48,267.70 711.50,268.27 711.51,268.84 711.53,269.42 711.54,270.01 711.56,270.59 711.57,271.19 711.59,271.79 711.60,272.39 711.62,273.00 711.63,273.62 711.65,274.24 711.67,274.85 711.69,275.47 711.70,276.09 711.72,276.72 711.74,277.34 711.76,277.96 711.77,278.58 711.79,279.20 711.80,279.83 711.82,280.45 711.83,281.08 711.85,281.71 711.87,282.33 711.89,282.96 711.90,283.58 711.92,284.20 711.93,284.83 711.95,285.45 711.97,286.07 711.99,286.70 712.01,287.33 712.02,287.95 712.04,288.57 712.06,289.19 712.08,289.82 712.10,290.44 712.12,291.05 712.15,291.67 712.17,292.29 712.19,292.90 712.20,293.52 712.23,294.14 712.25,294.76 712.27,295.37 712.29,295.99 712.32,296.61 712.34,297.23 712.37,297.85 712.39,298.46 712.41,299.06 712.43,299.67 712.45,300.26 712.48,300.85 712.50,301.44 712.52,302.01 712.53,302.57 712.55,303.12 712.57,303.66 712.59,304.20 712.61,304.73 712.62,305.26 712.64,305.78 712.66,306.31 712.68,306.83 712.70,307.34 712.71,307.86 712.73,308.38 712.74,308.89 712.76,309.39 712.77,309.90 712.78,310.40 712.79,310.89 712.80,311.38 712.81,311.85 712.82,312.30 712.83,312.75 712.84,313.17 712.85,313.59 712.86,313.98 712.87,314.38 712.88,314.76 712.88,315.14 712.89,315.50 712.90,315.85 712.91,316.19 712.92,316.52 712.93,316.85 712.93,317.16 712.94,317.48 712.94,317.80 712.95,318.11 712.95,318.41 712.96,318.71 712.96,319.01 712.96,319.30 712.97,319.59 712.97,319.89 712.97,320.17 712.97,320.46 712.98,320.75 712.97,321.04 712.97,321.34 712.98,321.64 712.98,321.95 712.98,322.27 712.98,322.58 712.99,322.91 712.99,323.25 713.00,323.58 713.01,323.93 713.02,324.28 713.03,324.63 713.04,325.00 713.05,325.37 713.07,325.75 713.09,326.12 713.11,326.51 713.12,326.91 713.14,327.32 713.16,327.73 713.18,328.14 713.20,328.57 713.22,329.00 713.24,329.44 713.26,329.88 713.28,330.33 713.30,330.78 713.32,331.25 713.34,331.72 713.37,332.20 713.40,332.67 713.42,333.15 713.45,333.65 713.48,334.14 713.50,334.65 713.53,335.16 713.56,335.67 713.58,336.19 713.61,336.72 713.65,337.26 713.68,337.79 713.71,338.33 713.74,338.88 713.77,339.43 713.80,339.99 713.84,340.54 713.87,341.11 713.90,341.68 713.94,342.25 713.97,342.83 714.00,343.41 714.04,344.00 714.07,344.58 714.11,345.17 714.14,345.77 714.17,346.37 714.20,346.96 714.24,347.56 714.27,348.17 714.30,348.77 714.33,349.38 714.36,349.99 714.40,350.60 714.43,351.22 714.46,351.84 714.49,352.45 714.52,353.07 714.55,353.69 714.58,354.31 714.60,354.94 714.63,355.56 714.65,356.18 714.68,356.80 714.70,357.41 714.73,358.02 714.75,358.62 714.77,359.23 714.80,359.84 714.82,360.45 714.84,361.06 714.86,361.65 714.88,362.26 714.90,362.86 714.92,363.46 714.94,364.06 714.96,364.66 714.98,365.27 714.99,365.87 715.01,366.47 715.03,367.07 715.04,367.67 715.05,368.27 715.07,368.88 715.09,369.47 715.10,370.09 715.12,370.69 715.14,371.30 715.16,371.91 715.17,372.52 715.19,373.12 715.21,373.74 715.23,374.35 715.25,374.96 715.26,375.57 715.28,376.18 715.30,376.80 715.32,377.41 715.34,378.03 715.36,378.64 715.38,379.26 715.40,379.88 715.42,380.50 715.44,381.13 715.46,381.75 715.48,382.38 715.50,383.00 715.52,383.63 715.54,384.26 715.56,384.89 715.58,385.52 715.60,386.15 715.62,386.78 715.64,387.42 715.67,388.06 715.69,388.70 715.71,389.34 715.73,389.98 715.75,390.62 715.78,391.27 715.80,391.91 715.82,392.56 715.85,393.20 715.87,393.85 715.90,394.50 715.92,395.15 715.95,395.80 715.97,396.45 716.00,397.11 716.03,397.76 716.05,398.41 716.07,399.06 716.10,399.72 716.12,400.38 716.15,401.03 716.17,401.68 716.20,402.34 716.22,402.99 716.25,403.64 716.27,404.29 716.30,404.93 716.32,405.57 716.34,406.22 716.36,406.86 716.39,407.49 716.41,408.13 716.44,408.76 716.46,409.39 716.48,410.02 716.51,410.65 716.53,411.27 716.55,411.90 716.58,412.52 716.60,413.14 716.62,413.75 716.64,414.37 716.65,414.98 716.68,415.59 716.70,416.20 716.72,416.81 716.73,417.42 716.75,418.03 716.77,418.64 716.79,419.24 716.81,419.85 716.82,420.45 716.84,421.06 716.86,421.66 716.87,422.27 716.88,422.87 716.90,423.48 716.92,424.07 716.93,424.67 716.95,425.28 716.96,425.89 716.97,426.50 716.99,427.11 717.00,427.72 717.02,428.34 717.03,428.95 717.04,429.57 717.06,430.18 717.07,430.80 717.09,431.41 717.10,432.02 717.11,432.63 717.13,433.23 717.15,433.83 717.16,434.43 717.17,435.03 717.19,435.63 717.20,436.22 717.21,436.81 717.22,437.40 717.23,437.98 717.24,438.57 717.24,439.14 717.25,439.71 717.25,440.28 717.25,440.85 717.25,441.41 717.26,441.95 717.26,442.50 717.25,443.05 717.25,443.59 717.24,444.14 717.23,444.69 717.22,445.23 717.20,445.78 717.19,446.33 717.17,446.87 717.15,447.41 717.13,447.96 717.11,448.50 717.09,449.04 717.07,449.58 717.04,450.10 717.01,450.63 716.99,451.16 716.96,451.70 716.93,452.23 716.90,452.76 716.87,453.28 716.85,453.81 716.82,454.33 716.79,454.86 716.76,455.38 716.73,455.90 716.70,456.42 716.68,456.93 716.65,457.45 716.63,457.96 716.61,458.47 716.59,458.98 716.57,459.49 716.55,460.00 716.53,460.50 716.51,461.00 716.49,461.50 716.47,461.99 716.45,462.48 716.44,462.97 716.42,463.46 716.40,463.96 716.38,464.45 716.37,464.94 716.36,465.43 716.35,465.91 716.33,466.38 716.32,466.85 716.30,467.32 716.29,467.78 716.28,468.24 716.26,468.69 716.25,469.15 716.24,469.59 716.23,470.03 716.22,470.47 716.21,470.91 716.20,471.33 716.19,471.76 716.18,472.18 716.17,472.59 716.16,472.99 716.15,473.39 716.14,473.77 716.14,474.15 716.13,474.51 716.12,474.87 716.11,475.22 716.11,475.57 716.10,475.92 716.10,476.26 716.10,476.60 716.10,476.93 716.09,477.26 716.09,477.59 716.09,477.91 716.09,478.23 716.09,478.54 716.10,478.85 716.11,479.15 716.12,479.45 716.13,479.75 716.14,480.06 716.14,480.36 716.15,480.65 716.18,480.95 716.22,481.24 716.27,481.52 716.32,481.81 716.37,482.10 716.43,482.40 716.49,482.69 716.56,482.99 716.63,483.30 716.71,483.60 716.79,483.91 716.88,484.23 716.97,484.55 717.06,484.87 717.15,485.20 717.24,485.53 717.34,485.87 717.44,486.21 717.54,486.55 717.63,486.90 717.73,487.25 717.83,487.61 717.93,487.97 718.03,488.34 718.13,488.71 718.24,489.08 718.34,489.45 718.45,489.83 718.55,490.21 718.65,490.59 718.75,490.97 718.85,491.36 718.94,491.73 719.03,492.11 719.12,492.47 719.19,492.83 719.26,493.19 719.33,493.55 719.40,493.91 719.46,494.27 719.52,494.63 719.58,494.99 719.63,495.35 719.67,495.71 719.72,496.07 719.76,496.43 719.81,496.79 719.84,497.15 719.87,497.51 719.91,497.87 719.94,498.23 719.96,498.59 719.99,498.96 720.01,499.32 720.03,499.68 720.06,500.05 720.08,500.42 720.10,500.79 720.12,501.15 720.14,501.52 720.15,501.89 720.17,502.26 720.18,502.63 720.20,503.01 720.21,503.38 720.23,503.75 720.25,504.13 720.27,504.50 720.28,504.88 720.29,505.25 720.31,505.62 720.33,505.99 720.34,506.36 720.35,506.72 720.37,507.07 720.38,507.43 720.39,507.79 720.41,508.14 720.42,508.50 720.44,508.85 720.45,509.21 720.47,509.57 720.49,509.93 720.50,510.29 720.52,510.66 720.54,511.02 720.55,511.39 720.57,511.75 720.59,512.12 720.61,512.49 720.62,512.86 720.64,513.24 720.66,513.61 720.68,513.98 720.69,514.35 720.71,514.73 720.73,515.10 720.74,515.47 720.76,515.83 720.78,516.19 720.79,516.54 720.81,516.89 720.82,517.24 720.84,517.58 720.85,517.92 720.86,518.25 720.87,518.58 720.88,518.90 720.89,519.21 720.90,519.52 720.91,519.83 720.92,520.13 720.93,520.43 720.94,520.73 720.95,521.02 720.96,521.31 720.97,521.59 720.98,521.87 721.00,522.15 721.01,522.43 721.02,522.70 721.03,522.97 721.04,523.23 721.05,523.50 721.06,523.75 721.07,524.01 721.07,524.26 721.07,524.52 721.08,524.77 721.08,525.02 721.08,525.27 721.08,525.51 721.08,525.76 721.07,526.00 721.07,526.24 721.06,526.48 721.06,526.71 721.05,526.95 721.04,527.18 721.03,527.41 721.02,527.64 721.00,527.87 720.99,528.10 720.97,528.34 720.95,528.57 720.92,528.80 720.90,529.04 720.87,529.28 720.84,529.52 720.80,529.76 720.77,530.01 720.73,530.26 720.69,530.51 720.65,530.76 720.60,531.02 720.55,531.27 720.50,531.53 720.45,531.79 720.39,532.06 720.32,532.33 720.26,532.60 720.19,532.87 720.12,533.14 720.05,533.41 719.97,533.69 719.90,533.97 719.82,534.25 719.74,534.53 719.65,534.82 719.57,535.10 719.49,535.39 719.42,535.68 719.34,535.96 719.27,536.24 719.19,536.52 719.12,536.80 719.06,537.09 718.99,537.37 718.92,537.65 718.87,537.93 718.82,538.21 718.78,538.50 718.75,538.78 718.72,539.07 718.69,539.35 718.67,539.62 718.64,539.89 718.63,540.15 718.61,540.41 718.61,540.67 718.61,540.93 718.61,541.18 718.62,541.44 718.63,541.69 718.64,541.95 718.65,542.20 718.66,542.47 718.67,542.73 718.69,543.00 718.72,543.27 718.74,543.54 718.77,543.82 718.81,544.10 718.85,544.38 718.89,544.66 718.93,544.95 718.98,545.23 719.02,545.52 719.08,545.79 719.13,546.06 719.19,546.33 719.25,546.60 719.31,546.86 719.38,547.11 719.44,547.37 719.51,547.62 719.58,547.86 719.65,548.10 719.72,548.34 719.80,548.58 719.87,548.81 719.95,549.03 720.02,549.24 720.09,549.43 720.15,549.61 720.20,549.77 720.24,549.93 720.29,550.07 720.33,550.20 720.38,550.33 720.42,550.46 720.46,550.57 720.49,550.68 720.52,550.78 720.55,550.87 720.58,550.96 720.61,551.04 720.63,551.11 720.65,551.17 720.66,551.21 720.67,551.24 720.68,551.26 720.68,551.26 720.67,551.25 720.67,551.25 720.67,551.24 720.67,551.24 720.67,551.24 720.67,551.24 720.67,551.23 720.66,551.22 720.65,551.19 720.64,551.15 720.63,551.11 720.63,551.08 720.62,551.04 720.61,551.01 720.60,550.98 720.60,550.94 720.59,550.90 720.58,550.85 720.57,550.80 720.56,550.75 720.55,550.70 720.53,550.64 720.52,550.58 720.50,550.51 720.49,550.43 720.48,550.35 720.46,550.27 720.44,550.18 720.42,550.09 720.40,550.00 720.39,549.91 720.37,549.81 720.35,549.71 720.33,549.60 720.31,549.49 720.28,549.37 720.25,549.26 720.22,549.13 720.18,549.01 720.13,548.89 720.08,548.76 720.03,548.62 719.98,548.49 719.93,548.35 719.87,548.22 719.81,548.10 719.75,547.97 719.69,547.84 719.62,547.71 719.55,547.58 719.48,547.45 719.41,547.32 719.34,547.18 719.26,547.05 719.18,546.91 719.10,546.78 719.01,546.65 718.92,546.53 718.82,546.40 718.73,546.29 718.64,546.19 718.55,546.09 718.46,546.01 718.38,545.93 718.29,545.86 718.21,545.79 718.13,545.71 718.04,545.64 717.96,545.57 717.87,545.50 717.79,545.44 717.71,545.39 717.63,545.34 717.55,545.29 717.46,545.24 717.38,545.19 717.29,545.14 717.19,545.09 717.10,545.05 717.00,545.01 716.90,544.98 716.81,544.95 716.73,544.93 716.64,544.91 716.55,544.89 716.47,544.86 716.39,544.84 716.30,544.82 716.22,544.79 716.13,544.77 716.04,544.75 715.95,544.74 715.87,544.73 715.79,544.72 715.71,544.71 715.65,544.71 715.58,544.70 715.52,544.70 715.46,544.70 715.40,544.69 715.34,544.69 715.29,544.69 715.23,544.69 715.18,544.68 715.13,544.68 715.08,544.68 715.03,544.68 714.97,544.67 714.91,544.67 714.85,544.67 714.79,544.67 714.74,544.66 714.68,544.66 714.63,544.66 714.58,544.66 714.53,544.65 714.48,544.65 714.44,544.65 714.40,544.65 714.35,544.64 714.31,544.64 714.26,544.64 714.21,544.64 714.17,544.64 714.13,544.63 714.10,544.63 714.07,544.63 714.05,544.63 714.02,544.63 713.98,544.63 713.94,544.63 713.89,544.63 713.85,544.62 713.80,544.62 713.77,544.62 713.74,544.62 713.72,544.62 713.71,544.62 713.70,544.62 713.69,544.61 713.68,544.61 713.67,544.61 713.65,544.61 713.64,544.61 713.64,544.61 713.63,544.61 713.63,544.61 713.63,544.61 713.63,544.61 713.63,544.61 713.62,544.61 713.61,544.61 713.61,544.61 713.61,544.61 713.61,544.61 713.61,544.61 713.61,544.61 713.61,544.61 713.61,544.61 713.61,544.61 713.61,544.61 713.61,544.61 713.61,544.61 713.61,544.61 713.61,544.61 713.61,544.61 713.61,544.61 713.61,544.61 713.61,544.61 713.61,544.61 713.62,544.61 713.62,544.61 713.62,544.61 713.62,544.61 713.63,544.61 713.63,544.61 713.63,544.61 713.64,544.61 713.64,544.61 713.64,544.61 713.64,544.61 713.64,544.61 713.63,544.61 713.63,544.61 713.63,544.61 713.63,544.61 713.63,544.61 713.63,544.61 713.63,544.61 713.63,544.61 713.64,544.61 713.64,544.61 713.63,544.61 713.63,544.61 713.63,544.61 713.63,544.61 713.63,544.61 713.63,544.61 713.63,544.61 713.63,544.61 713.63,544.61 713.63,544.61 713.63,544.61 713.63,544.61 713.63,544.61 713.63,544.61 713.63,544.61 713.63,544.61 713.63,544.61 713.63,544.61 713.63,544.61 713.63,544.61 713.63,544.61 713.64,544.61 713.64,544.61 713.63,544.61 713.63,544.61" fill="none" stroke="#0b6bcb" stroke-width="3.0" vector-effect="non-scaling-stroke"/>
<polyline points="721.27,510.87 721.28,510.70 721.28,510.60 721.26,510.51 721.27,510.40 721.26,510.28 721.26,510.18 721.26,509.92 721.27,509.80 721.26,509.66 721.26,509.49 721.26,509.34 721.25,509.18 721.25,509.01 721.24,508.84 721.24,508.66 721.24,508.48 721.23,508.29 721.23,508.09 721.21,507.89 721.22,507.69 721.21,507.48 721.21,507.28 721.21,507.05 721.20,506.84 721.19,506.61 721.19,506.40 721.18,506.17 721.18,505.94 721.17,505.70 721.17,505.47 721.16,505.23 721.16,504.99 721.15,504.74 721.15,504.49 721.14,504.23 721.13,503.98 721.13,503.72 721.12,503.46 721.11,503.20 721.10,502.94 721.09,502.67 721.09,502.40 721.09,502.13 721.08,501.86 721.07,501.59 721.06,501.31 721.06,501.03 721.06,500.75 721.05,500.47 721.04,499.90 721.03,499.61 721.02,499.32 721.01,499.03 721.01,498.74 721.00,498.44 720.99,498.17 720.98,497.88 720.98,497.62 720.98,497.34 720.97,497.07 720.97,496.79 720.96,496.50 720.95,496.22 720.93,495.95 720.94,495.68 720.92,495.40 720.91,495.13 720.88,494.86 720.87,494.60 720.86,494.35 720.83,494.09 720.81,493.85 720.78,493.60 720.74,493.37 720.71,493.14 720.65,492.91 720.61,492.70 720.55,492.48 720.48,492.26 720.40,492.06 720.32,491.85 720.24,491.66 720.13,491.47 720.03,491.27 719.90,491.09 719.77,490.90 719.64,490.74 719.49,490.57 719.32,490.40 719.18,490.26 719.01,490.10 718.85,489.96 718.67,489.83 718.50,489.71 718.31,489.60 718.12,489.49 717.93,489.41 717.73,489.32 717.55,489.24 717.36,489.16 717.18,489.09 716.99,489.02 716.79,488.97 716.59,488.92 716.39,488.88 716.18,488.84 715.97,488.81 715.75,488.80 715.55,488.77 715.32,488.75 715.10,488.73 714.86,488.71 714.62,488.70 714.38,488.67 714.13,488.65 713.89,488.63 713.63,488.61 713.38,488.60 713.13,488.57 712.86,488.55 712.61,488.53 712.35,488.51 712.09,488.50 711.81,488.49 711.53,488.48 711.24,488.47 710.95,488.45 710.66,488.44 710.37,488.42 710.09,488.41 709.80,488.40 709.52,488.40 709.24,488.39 708.96,488.39 708.68,488.38 708.40,488.38 708.13,488.38 707.85,488.38 707.58,488.38 707.31,488.38 707.04,488.39 706.77,488.39 706.51,488.40 706.24,488.39 705.98,488.41 705.45,488.42 705.19,488.42 704.91,488.43 704.64,488.43 704.08,488.46 703.80,488.47 703.51,488.49 703.23,488.50 702.65,488.52 702.36,488.53 702.06,488.55 701.77,488.56 701.47,488.58 701.15,488.59 700.85,488.61 700.53,488.63 700.22,488.64 699.90,488.66 699.57,488.68 699.24,488.70 698.90,488.72 698.58,488.74 698.24,488.76 697.89,488.78 697.19,488.82 696.85,488.84 696.50,488.85 696.15,488.87 695.82,488.89 695.47,488.90 695.14,488.92 694.79,488.94 694.46,488.95 694.12,488.97 693.78,488.98 693.44,489.01 693.09,489.02 692.73,489.04 692.39,489.05 692.02,489.07 691.67,489.09 691.31,489.10 690.95,489.12 690.59,489.14 690.22,489.16 689.86,489.17 689.49,489.19 689.11,489.20 688.74,489.22 688.36,489.24 687.98,489.26 687.61,489.27 687.23,489.29 686.84,489.31 686.44,489.33 686.06,489.34 685.67,489.36 685.27,489.38 684.87,489.40 684.48,489.42 684.07,489.44 683.67,489.45 683.26,489.47 682.86,489.49 682.44,489.51 682.05,489.53 681.64,489.55 681.24,489.57 680.82,489.59 680.42,489.60 680.03,489.62 679.61,489.64 679.19,489.67 678.78,489.68 678.36,489.70 677.94,489.72 677.52,489.74 677.09,489.76 676.66,489.78 676.22,489.80 675.79,489.82 675.34,489.84 674.92,489.86 674.49,489.88 674.06,489.89 673.63,489.92 673.20,489.93 672.80,489.95 672.37,489.97 671.95,489.99 671.54,490.01 671.12,490.03 670.69,490.05 670.26,490.06 669.81,490.08 669.37,490.10 668.94,490.11 668.50,490.13 668.06,490.15 667.62,490.16 667.18,490.17 666.73,490.18 666.29,490.19 665.86,490.20 665.42,490.21 664.98,490.21 664.55,490.21 664.11,490.22 663.69,490.22 663.26,490.24 662.82,490.26 662.38,490.26 661.95,490.27 661.52,490.27 661.10,490.28 660.67,490.31 660.26,490.34 659.85,490.36 659.42,490.38 658.99,490.39 658.57,490.42 658.13,490.44 657.71,490.46 657.29,490.49 656.87,490.51 656.44,490.54 656.01,490.56 655.58,490.59 655.16,490.62 654.72,490.64 654.29,490.67 653.86,490.69 653.44,490.72 653.01,490.75 652.58,490.77 652.15,490.80 651.71,490.83 651.27,490.85 650.83,490.88 650.40,490.91 649.98,490.94 649.53,490.97 649.10,491.00 648.67,491.03 648.22,491.06 647.78,491.09 647.35,491.12 646.92,491.15 646.49,491.18 645.65,491.24 645.21,491.28 644.78,491.32 644.36,491.36 643.94,491.40 643.51,491.45 643.07,491.51 642.65,491.55 642.22,491.58 641.77,491.62 641.35,491.64 640.92,491.68 640.49,491.74 640.09,491.79 639.66,491.84 639.24,491.86 638.85,491.88 638.43,491.91 638.03,491.94 637.62,491.98 637.23,492.01 636.84,492.04 636.46,492.07 636.07,492.10 635.70,492.12 635.32,492.15 634.95,492.19 634.58,492.20 634.21,492.23 633.85,492.26 633.50,492.28 633.12,492.31 632.77,492.33 632.42,492.36 632.07,492.38 631.72,492.41 631.37,492.43 631.02,492.45 630.68,492.47 630.34,492.49 629.98,492.51 629.63,492.54 629.28,492.56 628.92,492.58 628.56,492.60 628.20,492.61 627.85,492.64 627.49,492.66 627.14,492.67 626.79,492.70 626.42,492.71 626.06,492.72 625.68,492.74 625.31,492.75 624.93,492.76 624.56,492.78 624.18,492.79 623.81,492.80 623.42,492.81 623.04,492.83 622.65,492.84 622.27,492.84 621.88,492.85 621.49,492.87 621.10,492.88 620.70,492.89 620.31,492.90 619.92,492.91 619.52,492.92 619.12,492.92 618.73,492.94 618.33,492.95 617.93,492.95 617.54,492.97 617.14,492.97 616.73,492.97 616.33,493.00 615.92,493.01 615.52,493.02 615.12,493.05 614.71,493.07 614.29,493.08 613.90,493.11 613.48,493.12 613.07,493.15 612.67,493.17 612.26,493.20 611.85,493.22 611.43,493.25 611.03,493.26 610.62,493.29 610.20,493.32 609.80,493.35 609.38,493.37 608.97,493.40 608.54,493.43 608.11,493.46 607.70,493.49 607.26,493.51 606.85,493.55 606.42,493.58 606.00,493.61 605.55,493.64 605.12,493.67 604.68,493.70 604.23,493.73 603.80,493.76 603.36,493.78 602.92,493.82 602.47,493.85 602.01,493.88 601.55,493.91 601.08,493.94 600.62,493.97 600.17,494.00 599.69,494.03 599.23,494.06 598.78,494.09 598.31,494.12 597.86,494.15 597.39,494.18 596.92,494.21 596.44,494.25 595.97,494.27 595.48,494.30 595.00,494.33 594.51,494.36 594.02,494.39 593.50,494.42 593.03,494.45 592.52,494.49 591.53,494.55 591.03,494.58 590.55,494.61 590.08,494.64 589.58,494.67 589.11,494.69 588.63,494.72 588.17,494.76 587.70,494.79 587.26,494.81 586.80,494.85 586.35,494.88 585.90,494.90 585.47,494.93 585.02,494.96 584.57,494.99 584.15,495.02 583.72,495.05 583.30,495.08 582.86,495.10 582.43,495.13 582.00,495.16 581.57,495.19 581.15,495.21 580.72,495.24 580.30,495.27 579.48,495.32 579.07,495.35 578.66,495.38 578.24,495.40 577.87,495.43 577.45,495.46 577.07,495.49 576.68,495.52 576.30,495.54 575.90,495.58 575.52,495.60 575.14,495.63 574.76,495.66 574.39,495.69 574.02,495.72 573.66,495.74 573.30,495.77 572.93,495.80 572.59,495.83 572.24,495.86 571.90,495.88 571.54,495.91 571.19,495.94 570.83,495.97 570.46,496.00 570.10,496.03 569.74,496.06 569.37,496.09 569.02,496.12 568.65,496.14 568.31,496.17 567.95,496.21 567.60,496.23 567.25,496.25 566.91,496.27 566.58,496.30 566.23,496.32 565.90,496.34 565.57,496.37 565.23,496.38 564.91,496.40 564.60,496.43 564.26,496.44 563.97,496.46 563.65,496.48 563.34,496.48 563.05,496.50 562.74,496.51 562.46,496.53 562.18,496.54 561.92,496.55 561.64,496.56 561.38,496.57 561.10,496.57 560.83,496.58 560.56,496.60 560.30,496.60 560.02,496.62 559.76,496.63 559.19,496.64 558.93,496.65 558.68,496.66 558.42,496.67 558.17,496.67 557.92,496.68 557.67,496.68 557.43,496.68 557.17,496.70 556.93,496.71 556.67,496.71 556.39,496.71 556.13,496.73 555.86,496.73 555.59,496.75 555.33,496.75 555.05,496.76 554.77,496.77 554.49,496.78 554.20,496.78 553.92,496.80 553.63,496.81 553.33,496.82 553.02,496.83 552.71,496.84 552.40,496.86 552.08,496.87 551.76,496.89 551.43,496.89 551.09,496.91 550.75,496.93 550.40,496.95 550.06,496.96 549.70,496.98 549.33,496.99 548.97,497.01 548.60,497.03 548.22,497.05 547.83,497.07 547.45,497.09 547.05,497.10 546.65,497.12 546.25,497.13 545.85,497.16 545.45,497.17 545.04,497.18 544.63,497.21 544.22,497.23 543.79,497.26 543.39,497.27 542.96,497.30 542.55,497.32 542.11,497.35 541.69,497.37 541.27,497.40 540.84,497.42 540.41,497.45 539.97,497.48 539.55,497.51 539.10,497.54 538.66,497.57 538.23,497.60 537.78,497.64 537.35,497.66 536.91,497.69 536.46,497.72 536.04,497.75 535.59,497.79 535.17,497.82 534.72,497.85 534.28,497.88 533.84,497.91 533.41,497.95 532.96,497.98 532.53,498.01 532.08,498.05 531.64,498.08 531.20,498.11 530.76,498.15 530.31,498.18 529.85,498.22 529.40,498.25 528.95,498.28 528.49,498.31 528.01,498.35 527.55,498.38 527.08,498.42 526.60,498.45 526.13,498.49 525.64,498.53 525.16,498.58 524.67,498.61 524.18,498.66 523.69,498.70 523.19,498.75 522.69,498.80 522.19,498.84 521.69,498.90 521.18,498.96 520.68,499.04 520.18,499.10 519.66,499.18 519.16,499.25 518.65,499.34 518.13,499.43 517.63,499.52 517.11,499.61 516.61,499.71 516.09,499.82 515.58,499.93 515.06,500.06 514.57,500.18 514.08,500.30 513.57,500.43 513.11,500.57 512.60,500.71 512.12,500.84 511.63,500.99 511.15,501.14 510.66,501.31 510.20,501.47 509.73,501.64 509.28,501.81 508.81,501.99 508.35,502.17 507.89,502.37 507.44,502.54 506.97,502.75 506.51,502.95 506.06,503.14 505.63,503.35 505.17,503.56 504.74,503.76 504.28,503.98 503.85,504.19 503.39,504.42 502.96,504.64 502.50,504.87 502.07,505.10 501.63,505.33 501.20,505.57 500.76,505.79 499.89,506.27 499.45,506.51 499.01,506.75 498.59,506.97 498.16,507.21 497.75,507.46 497.32,507.69 496.89,507.93 496.46,508.18 496.04,508.40 495.62,508.64 495.22,508.87 494.81,509.10 494.41,509.32 494.01,509.56 493.60,509.77 493.21,510.00 492.82,510.22 492.43,510.44 492.05,510.66 491.66,510.87 491.28,511.09 490.91,511.31 490.53,511.52 490.18,511.72 489.80,511.93 489.45,512.13 489.10,512.34 488.77,512.53 488.46,512.71 488.17,512.86 487.87,513.03 487.59,513.19 487.33,513.34 487.07,513.49 486.85,513.61 486.61,513.75 486.41,513.86 486.20,513.98 486.00,514.10 485.81,514.20 485.61,514.32 485.44,514.41 485.27,514.52 485.12,514.61 484.97,514.68 484.83,514.76 484.71,514.84 484.58,514.90 484.48,514.96 484.37,515.02 484.27,515.08 484.20,515.12 484.11,515.17 484.05,515.21 483.98,515.24 483.89,515.29 483.83,515.33 483.80,515.35 483.75,515.37 483.72,515.38 483.68,515.41 483.65,515.43 483.62,515.45 483.58,515.47 483.55,515.49 483.51,515.50 483.49,515.52 483.46,515.54 483.43,515.55 483.40,515.57 483.36,515.59 483.33,515.60 483.30,515.63 483.25,515.65 483.20,515.68 483.14,515.71 483.08,515.75 483.01,515.79 482.93,515.83 482.85,515.87 482.77,515.92 482.67,515.98 482.56,516.03 482.45,516.09 482.32,516.15 482.18,516.22 482.04,516.29 481.87,516.36 481.68,516.43 481.48,516.52 481.27,516.61 481.04,516.70 480.79,516.80 480.51,516.87 480.24,516.96 479.92,517.04 479.62,517.12 479.28,517.20 478.90,517.26 478.56,517.33 478.18,517.39 477.81,517.43 477.41,517.46 476.99,517.49 476.55,517.51 476.11,517.51 475.64,517.49 475.19,517.50 474.72,517.47 474.24,517.44 473.74,517.39 473.25,517.30 472.75,517.18 472.25,517.04 471.74,516.89 471.23,516.74 470.72,516.56 470.21,516.34 469.71,516.10 469.22,515.84 468.72,515.58 468.22,515.29 467.73,514.97 467.26,514.64 466.79,514.30 466.34,513.95 465.88,513.57 465.45,513.18 465.02,512.79 464.60,512.37 464.20,511.94 463.80,511.51 463.42,511.09 463.03,510.64 462.66,510.21 462.29,509.75 461.94,509.32 461.60,508.87 461.26,508.43 460.94,507.99 460.61,507.55 460.29,507.12 459.96,506.67 459.63,506.23 459.31,505.80 458.97,505.34 458.65,504.89 458.31,504.43 457.97,503.97 457.64,503.52 457.30,503.05 456.96,502.59 456.63,502.11 456.29,501.65 455.93,501.16 455.61,500.70 455.28,500.22 454.93,499.74 454.60,499.27 454.27,498.79 453.95,498.31 453.62,497.85 453.29,497.37 452.97,496.87 452.64,496.40 452.28,495.88 451.96,495.38 451.61,494.88 451.28,494.36 450.94,493.84 450.59,493.33 450.26,492.80 449.92,492.27 449.58,491.74 449.25,491.21 448.90,490.66 448.56,490.11 448.23,489.57 447.89,489.01 447.57,488.48 447.24,487.92 446.91,487.36 446.58,486.81 446.25,486.24 445.93,485.67 445.61,485.10 445.29,484.53 444.97,483.95 444.65,483.36 444.34,482.77 444.02,482.18 443.72,481.59 443.41,480.98 443.10,480.38 442.80,479.78 442.51,479.16 442.21,478.54 441.93,477.94 441.63,477.31 441.36,476.69 441.09,476.08 440.82,475.45 440.55,474.83 440.27,474.20 440.01,473.58 439.74,472.93 439.47,472.30 439.21,471.65 438.96,471.02 438.71,470.38 438.48,469.74 438.22,469.07 437.98,468.41 437.75,467.76 437.51,467.09 437.28,466.42 437.06,465.77 436.84,465.11 436.61,464.42 436.43,463.78 436.21,463.09 436.00,462.41 435.81,461.75 435.61,461.05 435.42,460.38 435.24,459.70 435.05,459.04 434.87,458.34 434.70,457.67 434.53,456.99 434.36,456.31 434.20,455.64 434.04,454.96 433.90,454.29 433.75,453.59 433.60,452.92 433.47,452.23 433.34,451.58 433.20,450.89 433.09,450.22 432.96,449.53 432.84,448.86 432.72,448.18 432.61,447.49 432.51,446.79 432.41,446.11 432.31,445.41 432.22,444.72 432.13,444.02 432.05,443.33 431.97,442.63 431.89,441.93 431.81,441.24 431.76,440.55 431.68,439.86 431.62,439.18 431.56,438.47 431.51,437.79 431.46,437.07 431.41,436.39 431.37,435.67 431.33,434.99 431.30,434.28 431.27,433.60 431.22,432.89 431.20,432.17 431.19,431.49 431.16,430.78 431.14,430.06 431.13,429.37 431.11,428.67 431.11,427.96 431.10,427.26 431.11,426.55 431.11,425.82 431.11,425.11 431.12,424.43 431.14,423.72 431.15,423.00 431.17,422.29 431.19,421.60 431.24,420.88 431.27,420.19 431.31,419.48 431.35,418.78 431.40,418.06 431.46,417.38 431.53,416.66 431.59,415.95 431.67,415.24 431.73,414.55 431.82,413.83 431.90,413.13 431.99,412.42 432.08,411.71 432.19,411.00 432.29,410.28 432.39,409.57 432.51,408.87 432.62,408.16 432.74,407.43 432.86,406.72 432.98,405.99 433.11,405.30 433.23,404.57 433.36,403.87 433.49,403.14 433.62,402.45 433.77,401.72 433.89,401.02 434.03,400.28 434.17,399.58 434.30,398.85 434.44,398.14 434.58,397.41 434.70,396.72 434.85,395.99 434.98,395.28 435.12,394.56 435.26,393.84 435.39,393.15 435.53,392.44 435.67,391.70 435.81,391.01 435.95,390.29 436.08,389.57 436.23,388.87 436.37,388.16 436.53,387.42 436.66,386.72 436.81,386.01 436.95,385.30 437.09,384.58 437.24,383.87 437.38,383.16 437.52,382.47 437.66,381.76 437.81,381.04 437.95,380.33 438.10,379.63 438.25,378.92 438.40,378.20 438.55,377.48 438.72,376.76 438.87,376.03 439.03,375.31 439.19,374.60 439.34,373.89 439.51,373.16 439.66,372.45 439.83,371.71 439.98,371.01 440.15,370.27 440.30,369.56 440.47,368.85 440.62,368.13 440.79,367.42 440.96,366.69 441.11,366.01 441.27,365.28 441.43,364.57 441.58,363.87 441.73,363.15 441.88,362.46 442.04,361.73 442.18,361.05 442.33,360.34 442.48,359.64 442.63,358.94 442.78,358.25 442.93,357.53 443.07,356.85 443.23,356.14 443.36,355.45 443.51,354.76 443.65,354.06 443.79,353.38 443.94,352.69 444.07,352.00 444.21,351.31 444.36,350.60 444.49,349.93 444.63,349.21 444.76,348.52 444.91,347.80 445.04,347.12 445.19,346.41 445.32,345.73 445.45,345.02 445.59,344.32 445.73,343.62 445.86,342.94 446.00,342.22 446.13,341.53 446.26,340.86 446.40,340.16 446.53,339.49 446.67,338.79 446.81,338.10 446.94,337.41 447.10,336.71 447.23,336.03 447.38,335.30 447.52,334.63 447.67,333.89 447.82,333.21 447.96,332.52 448.12,331.81 448.27,331.08 448.41,330.39 448.57,329.68 448.71,328.99 448.86,328.29 449.01,327.57 449.15,326.86 449.30,326.17 449.44,325.47 449.59,324.75 449.75,324.04 449.90,323.33 450.05,322.63 450.20,321.92 450.35,321.22 450.52,320.50 450.67,319.80 450.82,319.10 450.97,318.39 451.12,317.70 451.28,317.01 451.43,316.32 451.58,315.64 451.72,314.98 451.87,314.31 452.02,313.65 452.16,312.99 452.31,312.32 452.45,311.65 452.59,311.02 452.72,310.37 452.85,309.71 453.00,309.06 453.15,308.41 453.28,307.77 453.43,307.13 453.56,306.50 453.69,305.86 453.84,305.22 453.97,304.60 454.12,303.93 454.26,303.29 454.41,302.68 454.54,302.03 454.68,301.42 454.83,300.78 454.98,300.17 455.11,299.52 455.26,298.86 455.39,298.24 455.54,297.58 455.68,296.95 455.82,296.29 455.97,295.66 456.10,295.02 456.25,294.37 456.39,293.73 456.53,293.09 456.67,292.42 456.81,291.79 456.96,291.13 457.10,290.49 457.23,289.85 457.37,289.21 457.52,288.55 457.66,287.91 457.80,287.24 457.95,286.59 458.10,285.93 458.25,285.26 458.39,284.61 458.54,283.94 458.68,283.30 458.82,282.63 458.97,281.97 459.11,281.31 459.26,280.63 459.41,279.98 459.55,279.31 459.69,278.65 459.84,277.97 459.99,277.31 460.13,276.63 460.27,275.96 460.42,275.30 460.55,274.60 460.69,273.94 460.83,273.29 460.97,272.61 461.11,271.96 461.24,271.29 461.37,270.62 461.52,269.92 461.66,269.29 461.79,268.59 461.93,267.94 462.05,267.24 462.20,266.56 462.33,265.87 462.46,265.22 462.60,264.52 462.74,263.86 462.87,263.21 463.02,262.52 463.15,261.87 463.30,261.19 463.44,260.51 463.58,259.84 463.72,259.15 463.87,258.47 464.02,257.79 464.16,257.11 464.31,256.43 464.44,255.76 464.58,255.09 464.73,254.40 464.88,253.70 465.02,253.03 465.17,252.35 465.33,251.68 465.47,251.00 465.62,250.36 465.77,249.68 465.93,249.01 466.08,248.35 466.23,247.70 466.39,247.03 466.53,246.38 466.69,245.75 466.83,245.11 466.98,244.49 467.13,243.85 467.27,243.24 467.43,242.61 467.57,242.00 467.71,241.39 467.87,240.76 468.01,240.15 468.16,239.54 468.30,238.93 468.46,238.30 468.61,237.70 468.77,237.09 468.92,236.48 469.08,235.86 469.24,235.25 469.39,234.64 469.55,234.04 469.71,233.42 469.87,232.84 470.04,232.22 470.19,231.65 470.36,231.04 470.52,230.49 470.69,229.90 470.86,229.33 471.03,228.75 471.22,228.15 471.40,227.56 471.59,226.98 471.78,226.40 471.97,225.82 472.15,225.24 472.36,224.65 472.57,224.05 472.77,223.46 472.96,222.90 473.18,222.30 473.38,221.75 473.62,221.17 473.83,220.59 474.05,220.03 474.27,219.47 474.50,218.89 474.73,218.33 474.96,217.78 475.21,217.20 475.43,216.64 475.69,216.09 475.93,215.53 476.18,214.97 476.44,214.42 476.69,213.86 476.96,213.32 477.22,212.75 477.49,212.21 477.77,211.66 478.04,211.10 478.33,210.56 478.61,210.02 478.89,209.48 479.18,208.94 479.46,208.39 479.75,207.84 480.04,207.30 480.32,206.78 480.62,206.23 480.91,205.72 481.21,205.20 481.47,204.67 481.80,204.14 482.08,203.61 482.39,203.12 482.68,202.60 482.98,202.10 483.28,201.58 483.60,201.07 483.91,200.57 484.22,200.06 484.54,199.57 484.86,199.05 485.18,198.56 485.50,198.05 485.81,197.56 486.14,197.06 486.46,196.57 486.80,196.04 487.14,195.55 487.47,195.04 487.82,194.53 488.14,194.06 488.48,193.56 488.82,193.08 489.16,192.58 489.51,192.09 489.87,191.58 490.22,191.09 490.58,190.61 490.95,190.10 491.30,189.62 491.68,189.10 492.05,188.62 492.44,188.13 492.82,187.62 493.21,187.13 493.61,186.65 494.00,186.13 494.39,185.66 494.81,185.14 495.20,184.67 495.63,184.15 496.04,183.66 496.46,183.17 496.89,182.67 497.33,182.17 497.75,181.68 498.18,181.19 498.63,180.69 499.07,180.21 499.51,179.72 499.96,179.22 500.42,178.74 500.88,178.25 501.33,177.78 501.79,177.29 502.26,176.81 502.71,176.33 503.18,175.86 503.66,175.39 504.14,174.91 504.61,174.45 505.07,173.97 505.57,173.49 506.04,173.04 506.53,172.57 507.01,172.11 507.49,171.64 507.98,171.21 508.47,170.75 508.97,170.30 509.46,169.89 509.96,169.44 510.46,169.01 510.98,168.60 511.48,168.17 511.98,167.73 512.53,167.28 513.02,166.87 513.56,166.44 514.07,166.01 514.60,165.57 515.12,165.11 515.66,164.68 516.19,164.24 516.72,163.81 517.27,163.38 517.79,162.95 518.36,162.53 518.91,162.10 519.47,161.67 520.04,161.24 520.59,160.83 521.17,160.41 521.74,160.01 522.33,159.59 522.88,159.18 523.48,158.78 524.07,158.38 524.66,157.97 525.22,157.61 525.83,157.18 526.41,156.83 527.03,156.40 527.60,156.06 528.22,155.67 528.83,155.29 529.39,154.94 530.00,154.57 530.59,154.24 531.19,153.88 531.78,153.53 532.38,153.18 532.98,152.85 533.57,152.52 534.17,152.18 534.77,151.85 535.40,151.51 535.98,151.21 536.62,150.88 537.23,150.58 537.85,150.26 538.48,149.96 539.05,149.67 539.66,149.37 540.28,149.09 540.89,148.79 541.54,148.50 542.13,148.24 542.75,147.99 543.36,147.73 544.01,147.44 544.65,147.19 545.28,146.95 545.92,146.67 546.53,146.42 547.19,146.17 547.82,145.93 548.45,145.67 549.10,145.45 549.75,145.21 550.39,144.96 551.02,144.74 551.68,144.52 552.37,144.27 553.03,144.05 553.69,143.83 554.40,143.59 555.09,143.37 555.74,143.16 556.41,142.95 557.07,142.75 557.80,142.53 558.44,142.34 559.15,142.13 559.83,141.94 560.47,141.76 561.16,141.56 561.86,141.37 562.55,141.19 563.23,141.01 563.95,140.84 564.61,140.66 565.31,140.50 565.99,140.33 566.73,140.16 567.39,140.01 568.06,139.85 568.74,139.70 569.43,139.55 570.13,139.40 570.81,139.27 571.48,139.13 572.17,139.00 572.85,138.86 573.58,138.74 574.23,138.61 574.92,138.49 575.60,138.38 576.25,138.27 576.87,138.16 577.58,138.06 578.24,137.95 578.87,137.86 579.53,137.76 580.20,137.67 580.87,137.58 581.53,137.49 582.18,137.41 582.90,137.33 583.51,137.26 584.20,137.19 584.86,137.11 585.57,137.05 586.19,136.98 586.86,136.92 587.49,136.87 588.21,136.82 588.84,136.76 589.48,136.71 590.11,136.67 590.78,136.62 591.47,136.58 592.14,136.54 592.83,136.50 593.48,136.46 594.18,136.43 594.84,136.40 595.50,136.37 596.19,136.34 596.85,136.32 597.56,136.29 598.17,136.27 598.88,136.24 599.53,136.22 600.24,136.20 600.91,136.17 601.60,136.15 602.27,136.13 602.95,136.10 603.62,136.09 604.31,136.06 604.94,136.04 605.64,136.02 606.31,136.00 606.99,135.97 607.67,135.94 608.34,135.92 609.02,135.90 609.68,135.87 610.36,135.84 611.01,135.81 611.66,135.79 612.35,135.75 612.97,135.72 613.65,135.69 614.28,135.65 614.96,135.63 615.60,135.60 616.22,135.57 616.85,135.53 617.44,135.50 618.12,135.47 618.71,135.44 619.35,135.41 619.99,135.38 620.53,135.35 621.23,135.32 621.78,135.30 622.45,135.27 623.05,135.24 623.69,135.21 624.31,135.19 624.94,135.16 625.55,135.14 626.20,135.11 626.84,135.09 627.45,135.07 628.05,135.04 628.66,135.02 629.26,134.99 629.91,134.96 630.54,134.94 631.17,134.92 631.80,134.89 632.44,134.87 633.08,134.84 633.72,134.81 634.36,134.79 634.98,134.75 635.63,134.73 636.26,134.70 636.89,134.67 637.55,134.64 638.18,134.61 638.82,134.58 639.43,134.56 640.09,134.52 640.72,134.49 641.36,134.47 642.00,134.44 642.63,134.41 643.27,134.38 643.90,134.35 644.55,134.32 645.21,134.29 645.83,134.26 646.47,134.23 647.11,134.21 647.77,134.18 648.39,134.16 649.02,134.13 649.69,134.11 650.32,134.09 650.95,134.06 651.59,134.04 652.23,134.02 652.84,134.00 653.51,133.97 654.12,133.95 654.74,133.93 655.38,133.91 656.02,133.89 656.60,133.88 657.23,133.87 657.86,133.85 658.44,133.85 658.96,133.84 659.57,133.82 660.19,133.80 660.80,133.79 661.45,133.78 662.02,133.76 662.63,133.75 663.21,133.74 663.80,133.72 664.42,133.71 665.00,133.70 665.63,133.68 666.25,133.67 666.87,133.65 667.49,133.64 668.11,133.63 668.70,133.62 669.32,133.61 669.96,133.59 670.55,133.58 671.18,133.57 671.80,133.56 672.42,133.55 673.02,133.55 673.63,133.53 674.26,133.52 674.87,133.50 675.50,133.48 676.10,133.47 676.73,133.46 677.32,133.44 677.94,133.42 678.55,133.39 679.17,133.38 679.77,133.35 680.38,133.33 680.99,133.30 681.59,133.28 682.21,133.25 682.80,133.22 683.37,133.20 683.99,133.17 684.55,133.14 685.14,133.12 685.71,133.10 686.30,133.07 686.89,133.05 687.45,133.03 688.03,133.01 688.59,133.00 689.16,132.99 689.71,132.97 690.29,132.97 690.85,132.97 691.40,132.98 691.97,132.99 692.51,133.02 693.07,133.06 693.59,133.10 694.12,133.15 694.67,133.22 695.16,133.30 695.69,133.41 696.15,133.51 696.67,133.63 697.13,133.77 697.60,133.92 698.04,134.08 698.48,134.25 698.92,134.43 699.35,134.63 699.74,134.84 700.17,135.07 700.58,135.30 700.94,135.55 701.32,135.80 701.68,136.06 702.05,136.34 702.38,136.62 702.72,136.91 703.04,137.22 703.35,137.51 703.67,137.82 703.95,138.12 704.24,138.45 704.50,138.79 704.76,139.13 704.99,139.48 705.24,139.83 705.47,140.19 705.69,140.55 705.89,140.92 706.08,141.31 706.24,141.69 706.41,142.09 706.55,142.49 706.70,142.89 706.84,143.30 706.97,143.71 707.07,144.13 707.17,144.56 707.26,144.99 707.33,145.41 707.40,145.85 707.47,146.28 707.51,146.71 707.58,147.15 707.64,147.58 707.67,148.02 707.72,148.46 707.75,148.91 707.79,149.35 707.84,149.82 707.88,150.27 707.92,150.74 707.96,151.20 708.00,151.64 708.04,152.13 708.06,152.59 708.10,153.08 708.13,153.57 708.15,154.05 708.18,154.56 708.20,155.08 708.24,155.60 708.26,156.11 708.28,156.61 708.30,157.12 708.31,157.67 708.34,158.20 708.36,158.75 708.38,159.30 708.40,159.86 708.42,160.42 708.44,160.99 708.45,161.55 708.47,162.11 708.48,162.68 708.50,163.24 708.52,163.81 708.54,164.40 708.56,164.98 708.57,165.56 708.59,166.14 708.61,166.72 708.62,167.30 708.64,167.88 708.66,168.49 708.68,169.08 708.70,169.69 708.72,170.27 708.73,170.88 708.75,171.46 708.76,172.07 708.78,172.67 708.78,173.25 708.79,173.83 708.80,174.46 708.80,175.05 708.81,175.65 708.83,176.25 708.84,176.86 708.83,177.46 708.83,178.04 708.83,178.63 708.84,179.23 708.85,179.82 708.84,180.41 708.83,180.98 708.83,181.56 708.83,182.17 708.83,182.72 708.83,183.32 708.83,183.85 708.83,184.45 708.83,184.99 708.82,185.60 708.83,186.19 708.82,186.72 708.82,187.30 708.82,187.83 708.82,188.41 708.82,188.99 708.82,189.55 708.83,190.11 708.82,190.66 708.83,191.23 708.83,191.82 708.83,192.38 708.84,192.96 708.85,193.54 708.86,194.12 708.87,194.72 708.87,195.30 708.87,195.89 708.88,196.47 708.89,197.07 708.90,197.66 708.91,198.25 708.91,198.85 708.93,199.45 708.94,200.06 708.95,200.69 708.96,201.29 708.98,201.88 708.98,202.49 708.99,203.08 709.00,203.69 709.02,204.29 709.03,204.90 709.05,205.50 709.06,206.10 709.07,206.71 709.10,207.30 709.11,207.89 709.13,208.48 709.15,209.07 709.16,209.66 709.18,210.25 709.20,210.82 709.21,211.42 709.22,211.97 709.24,212.54 709.26,213.12 709.26,213.68 709.28,214.25 709.30,214.83 709.31,215.37 709.33,215.90 709.35,216.44 709.37,216.95 709.40,217.43 709.44,218.51 709.46,219.08 709.47,219.64 709.50,220.15 709.51,220.71 709.53,221.23 709.55,221.76 709.56,222.31 709.58,222.87 709.61,223.41 709.63,223.97 709.65,224.49 709.67,225.08 709.70,225.61 709.73,226.15 709.75,226.68 709.78,227.22 709.80,227.76 709.82,228.28 709.84,228.82 709.87,229.32 709.88,229.87 709.90,230.41 709.93,230.92 709.95,231.45 709.98,232.00 709.99,232.53 710.01,233.04 710.03,233.55 710.06,234.05 710.11,234.54 710.15,235.02 710.17,235.50 710.17,235.99 710.19,236.50 710.22,236.98 710.24,237.47 710.28,237.94 710.30,238.42 710.31,238.90 710.32,239.37 710.33,239.83 710.35,240.29 710.36,240.75 710.38,241.19 710.39,241.66 710.40,242.10 710.42,242.56 710.43,243.00 710.45,243.44 710.46,243.90 710.47,244.34 710.48,244.79 710.50,245.24 710.51,245.68 710.52,246.12 710.53,246.56 710.55,246.97 710.57,247.39 710.58,247.84 710.60,248.30 710.61,248.74 710.62,249.20 710.64,249.66 710.65,250.12 710.67,250.59 710.69,251.07 710.70,251.58 710.72,252.06 710.73,252.53 710.75,253.02 710.77,253.53 710.79,254.05 710.80,254.56 710.81,255.08 710.83,255.62 710.85,256.13 710.87,256.66 710.89,257.21 710.90,257.75 710.92,258.29 710.94,258.83 710.97,259.38 710.98,259.92 711.00,260.49 711.02,261.07 711.04,261.64 711.06,262.20 711.08,262.76 711.10,263.35 711.12,263.93 711.14,264.53 711.15,265.10 711.17,265.69 711.19,266.30 711.20,266.88 711.22,267.48 711.23,268.09 711.25,268.69 711.27,269.30 711.28,269.88 711.30,270.51 711.31,271.10 711.32,271.70 711.35,272.32 711.36,272.92 711.38,273.51 711.40,274.11 711.41,274.72 711.43,275.32 711.45,275.93 711.46,276.53 711.48,277.17 711.51,277.81 711.52,278.43 711.54,279.04 711.56,279.66 711.57,280.30 711.59,280.88 711.61,281.53 711.62,282.14 711.64,282.75 711.65,283.34 711.68,283.96 711.70,284.56 711.72,285.16 711.72,285.77 711.74,286.37 711.76,286.99 711.78,287.58 711.79,288.22 711.81,288.81 711.83,289.45 711.85,290.07 711.87,290.68 711.88,291.28 711.91,291.93 711.93,292.55 711.95,293.16 711.98,293.75 711.99,294.35 712.02,294.99 712.04,295.58 712.07,296.22 712.10,296.84 712.12,297.43 712.15,298.05 712.17,298.65 712.20,299.25 712.22,299.87 712.24,300.44 712.27,301.05 712.28,301.63 712.31,302.22 712.33,302.79 712.35,303.35 712.38,303.92 712.40,304.48 712.43,305.05 712.44,305.59 712.46,306.13 712.48,306.67 712.51,307.18 712.53,307.71 712.53,308.22 712.55,308.73 712.57,309.22 712.59,309.72 712.60,310.23 712.61,310.72 712.62,311.18 712.64,311.66 712.64,312.10 712.65,312.55 712.67,312.96 712.68,313.38 712.68,313.78 712.70,314.16 712.70,314.55 712.71,314.93 712.72,315.30 712.73,315.64 712.73,315.99 712.75,316.33 712.76,316.67 712.77,317.00 712.77,317.30 712.78,317.62 712.78,317.92 712.78,318.23 712.79,318.53 712.79,318.84 712.80,319.15 712.80,319.43 712.80,319.72 712.80,320.02 712.80,320.32 712.80,320.61 712.81,320.90 712.83,321.22 712.82,321.50 712.83,321.83 712.83,322.14 712.84,322.45 712.85,322.77 712.85,323.12 712.86,323.46 712.87,323.79 712.87,324.15 712.89,324.51 712.90,324.86 712.92,325.24 712.93,325.63 712.95,326.01 712.96,326.40 712.97,326.80 712.98,327.21 713.01,327.59 713.02,328.02 713.04,328.44 713.06,328.86 713.08,329.29 713.10,329.72 713.12,330.17 713.14,330.60 713.16,331.06 713.18,331.52 713.21,332.00 713.23,332.48 713.25,332.96 713.28,333.44 713.31,333.93 713.33,334.42 713.36,334.93 713.38,335.42 713.42,335.97 713.44,336.48 713.48,337.02 713.50,337.57 713.54,338.08 713.57,338.61 713.59,339.14 713.63,339.69 713.66,340.21 713.70,340.76 713.73,341.34 713.75,341.91 713.79,342.47 713.83,343.06 713.86,343.63 713.89,344.23 713.93,344.83 713.96,345.39 713.99,346.00 714.03,346.61 714.06,347.20 714.09,347.82 714.13,348.42 714.15,349.04 714.19,349.68 714.21,350.29 714.25,350.91 714.28,351.54 714.30,352.17 714.34,352.79 714.36,353.41 714.39,354.06 714.42,354.67 714.45,355.30 714.47,355.92 714.49,356.56 714.51,357.19 714.54,357.79 714.56,358.41 714.58,359.01 714.60,359.61 714.62,360.21 714.64,360.84 714.66,361.44 714.68,362.05 714.69,362.66 714.72,363.24 714.74,363.85 714.74,364.45 714.76,365.04 714.77,365.65 714.78,366.25 714.80,366.87 714.81,367.45 714.83,368.07 714.83,368.65 714.85,369.26 714.87,369.88 714.88,370.47 714.90,371.07 714.92,371.69 714.94,372.30 714.96,372.90 714.97,373.50 714.99,374.12 715.02,374.69 715.03,375.31 715.06,375.92 715.07,376.52 715.09,377.14 715.10,377.74 715.12,378.36 715.12,378.96 715.14,379.59 715.16,380.20 715.17,380.83 715.20,381.45 715.21,382.06 715.23,382.69 715.25,383.33 715.27,383.95 715.29,384.56 715.30,385.19 715.32,385.83 715.35,386.48 715.37,387.12 715.39,387.76 715.42,388.42 715.44,389.06 715.46,389.71 715.48,390.36 715.50,391.00 715.52,391.64 715.55,392.31 715.57,392.94 715.59,393.57 715.62,394.24 715.64,394.88 715.67,395.54 715.69,396.18 715.71,396.83 715.74,397.50 715.76,398.17 715.78,398.78 715.80,399.46 715.82,400.09 715.85,400.76 715.88,401.42 715.91,402.09 715.92,402.71 715.95,403.37 715.98,404.02 716.00,404.68 716.03,405.31 716.05,405.96 716.07,406.60 716.09,407.23 716.11,407.88 716.14,408.51 716.16,409.15 716.18,409.77 716.21,410.38 716.22,411.01 716.25,411.62 716.27,412.23 716.28,412.84 716.30,413.45 716.33,414.07 716.34,414.66 716.36,415.26 716.38,415.88 716.40,416.49 716.42,417.08 716.43,417.69 716.45,418.32 716.47,418.91 716.49,419.54 716.49,420.14 716.51,420.77 716.53,421.38 716.55,421.97 716.56,422.59 716.58,423.21 716.58,423.81 716.59,424.44 716.62,425.06 716.62,425.67 716.66,426.29 716.66,426.89 716.67,427.50 716.68,428.13 716.69,428.73 716.71,429.36 716.73,429.98 716.73,430.61 716.75,431.20 716.76,431.80 716.78,432.39 716.80,433.03 716.82,433.65 716.83,434.24 716.85,434.86 716.87,435.46 716.88,436.05 716.89,436.65 716.89,437.21 716.91,437.79 716.91,438.37 716.92,438.95 716.92,439.51 716.92,440.07 716.92,440.62 716.92,441.20 716.92,441.73 716.92,442.30 716.92,442.84 716.91,443.41 716.90,443.96 716.89,444.47 716.88,445.02 716.86,445.56 716.85,446.10 716.83,446.62 716.80,447.16 716.79,447.69 716.76,448.23 716.74,448.76 716.71,449.29 716.68,449.83 716.66,450.36 716.63,450.90 716.60,451.41 716.56,451.94 716.53,452.46 716.50,452.98 716.47,453.52 716.44,454.06 716.42,454.59 716.38,455.11 716.36,455.62 716.33,456.15 716.30,456.65 716.27,457.18 716.25,457.68 716.23,458.21 716.20,458.73 716.18,459.26 716.16,459.77 716.14,460.29 716.11,460.78 716.09,461.28 716.07,461.77 716.05,462.28 716.05,462.78 716.02,463.26 716.00,463.77 715.99,464.28 715.96,464.77 715.96,465.25 715.93,465.74 715.93,466.21 715.90,466.67 715.89,467.13 715.88,467.60 715.85,468.06 715.84,468.49 715.82,468.96 715.82,469.39 715.79,469.84 715.78,470.27 715.78,470.69 715.77,471.12 715.75,471.55 715.74,471.96 715.73,472.37 715.73,472.78 715.71,473.16 715.72,473.55 715.70,473.92 715.69,474.29 715.69,474.65 715.68,475.01 715.68,475.36 715.66,475.71 715.67,476.05 715.66,476.39 715.65,476.72 715.65,477.06 715.65,477.38 715.65,477.69 715.64,478.02 715.64,478.34 715.65,478.65 715.65,478.95 715.66,479.26 715.68,479.56 715.68,479.86 715.69,480.17 715.70,480.47 715.71,480.77 715.75,481.06 715.79,481.36 715.84,481.64 715.89,481.95 715.95,482.24 716.01,482.53 716.07,482.84 716.14,483.14 716.22,483.44 716.29,483.77 716.39,484.07 716.48,484.41 716.57,484.72 716.66,485.06 716.75,485.39 716.85,485.73 716.94,486.07 717.05,486.42 717.15,486.76 717.24,487.13 717.34,487.48 717.44,487.83 717.55,488.19 717.65,488.55 717.75,488.92 717.84,489.29 717.95,489.67 718.05,490.03 718.16,490.41 718.26,490.79 718.36,491.17 718.44,491.54 718.53,491.93 718.62,492.29 718.70,492.67 718.77,493.03 718.83,493.39 718.89,493.73 718.95,494.09 719.02,494.43 719.08,494.79 719.13,495.16 719.18,495.52 719.23,495.87 719.28,496.23 719.34,496.59 719.37,496.93 719.41,497.31 719.44,497.66 719.46,498.02 719.49,498.38 719.52,498.75 719.55,499.11 719.57,499.48 719.59,499.84 719.61,500.23 719.64,500.59 719.65,500.96 719.68,501.33 719.69,501.72 719.71,502.09 719.73,502.45 719.73,502.84 719.75,503.20 719.76,503.59 719.78,503.97 719.80,504.34 719.81,504.70 719.83,505.08 719.84,505.45 719.86,505.83 719.87,506.20 719.89,506.56 719.92,507.29 719.93,507.64 719.94,508.00 719.96,508.36 719.97,508.72 719.99,509.08 720.00,509.44 720.01,509.80 720.03,510.15 720.05,510.50 720.07,510.85 720.08,511.21 720.09,511.57 720.11,511.92 720.13,512.28 720.15,512.66 720.16,513.04 720.19,513.41 720.20,513.79 720.22,514.16 720.24,514.54 720.25,514.91 720.28,515.26 720.28,515.62 720.31,515.97 720.31,516.33 720.33,516.67 720.35,517.02 720.35,517.36 720.37,517.70 720.38,518.03 720.40,518.37 720.40,518.69 720.42,519.02 720.43,519.33 720.44,519.64 720.45,519.94 720.45,520.25 720.47,520.55 720.47,520.85 720.48,521.14 720.50,521.44 720.50,521.73 720.52,522.01 720.52,522.29 720.54,522.56 720.55,522.84 720.57,523.11 720.58,523.37 720.58,523.64 720.59,523.90 720.60,524.17 720.61,524.41 720.61,524.68 720.61,524.93 720.61,525.18 720.61,525.43 720.60,525.67 720.60,525.91 720.60,526.16 720.59,526.40 720.59,526.64 720.58,526.88 720.57,527.10 720.56,527.33 720.55,527.56 720.54,527.79 720.52,528.02 720.50,528.25 720.48,528.48 720.46,528.71 720.43,528.93 720.41,529.17 720.38,529.40 720.35,529.64 720.32,529.90 720.28,530.15 720.24,530.39 720.20,530.64 720.16,530.89 720.11,531.14 720.06,531.41 720.00,531.67 719.94,531.93 719.89,532.21 719.82,532.47 719.76,532.74 719.69,533.02 719.62,533.29 719.54,533.55 719.47,533.84 719.40,534.11 719.31,534.40 719.24,534.68 719.15,534.95 719.07,535.24 719.00,535.53 718.92,535.80 718.85,536.08 718.77,536.37 718.69,536.65 718.63,536.93 718.56,537.23 718.49,537.51 718.43,537.80 718.37,538.06 718.33,538.36 718.30,538.64 718.27,538.92 718.23,539.22 718.20,539.49 718.19,539.76 718.16,540.03 718.15,540.29 718.14,540.55 718.13,540.80 718.14,541.07 718.14,541.32 718.15,541.57 718.16,541.83 718.17,542.09 718.18,542.35 718.19,542.62 718.21,542.88 718.23,543.14 718.25,543.40 718.28,543.68 718.31,543.96 718.35,544.25 718.39,544.53 718.44,544.80 718.48,545.09 718.53,545.38 718.58,545.66 718.63,545.93 718.70,546.20 718.76,546.47 718.82,546.74 718.88,546.98 718.94,547.25 719.01,547.50 719.08,547.74 719.15,547.99 719.22,548.22 719.29,548.46 719.36,548.69 719.44,548.92 719.52,549.14 719.58,549.34 719.65,549.52 719.69,549.70 719.75,549.85 719.79,550.00 719.84,550.14 719.88,550.27 719.92,550.41 719.97,550.52 720.00,550.64 720.04,550.74 720.07,550.83 720.10,550.92 720.13,551.01 720.14,551.08 720.17,551.14 720.18,551.19 720.19,551.23 720.21,551.25 720.20,551.26 720.21,551.26 720.20,551.25 720.21,551.25 720.21,551.25 720.20,551.24 720.21,551.24 720.20,551.23 720.20,551.22 720.19,551.20 720.18,551.18 720.17,551.14 720.16,551.10 720.15,551.06 720.15,551.03 720.14,551.00 720.13,550.96 720.12,550.93 720.11,550.88 720.10,550.84 720.09,550.78 720.08,550.73 720.07,550.68 720.06,550.62 720.04,550.55 720.02,550.47 720.01,550.39 720.00,550.31 719.99,550.22 719.97,550.14 719.95,550.05 719.94,549.95 719.92,549.86 719.91,549.75 719.89,549.65 719.87,549.54 719.85,549.44 719.81,549.31 719.78,549.20 719.74,549.08 719.70,548.95 719.65,548.83 719.60,548.69 719.55,548.55 719.50,548.42 719.45,548.28 719.39,548.16 719.33,548.03 719.26,547.90 719.20,547.77 719.12,547.64 719.05,547.51 718.98,547.38 718.91,547.24 718.84,547.11 718.76,546.97 718.68,546.84 718.59,546.71 718.50,546.57 718.41,546.45 718.31,546.33 718.21,546.22 718.13,546.12 718.04,546.04 717.95,545.96 717.86,545.89 717.78,545.81 717.70,545.73 717.62,545.66 717.53,545.58 717.43,545.52 717.36,545.46 717.27,545.40 717.19,545.35 717.11,545.30 717.03,545.26 716.96,545.21 716.87,545.16 716.78,545.11 716.69,545.06 716.58,545.02 716.49,544.98 716.39,544.95 716.31,544.93 716.22,544.90 716.14,544.88 716.05,544.86 715.97,544.84 715.89,544.82 715.80,544.79 715.72,544.77 715.63,544.75 715.54,544.74 715.46,544.73 715.38,544.71 715.30,544.71 715.23,544.70 715.16,544.70 715.10,544.69 715.04,544.69 714.98,544.68 714.93,544.68 714.87,544.68 714.81,544.68 714.75,544.67 714.70,544.67 714.66,544.67 714.60,544.66 714.55,544.67 714.49,544.66 714.43,544.66 714.36,544.66 714.30,544.65 714.25,544.65 714.20,544.65 714.14,544.65 714.09,544.65 714.05,544.64 714.00,544.64 713.96,544.64 713.91,544.64 713.87,544.64 713.82,544.63 713.76,544.63 713.72,544.63 713.68,544.63 713.65,544.62 713.62,544.61 713.59,544.62 713.57,544.61 713.54,544.62 713.50,544.62 713.46,544.62 713.41,544.62 713.36,544.61 713.33,544.61 713.30,544.60 713.27,544.61 713.25,544.61 713.24,544.60 713.23,544.60 713.22,544.60 713.22,544.60 713.20,544.60 713.19,544.61 713.18,544.60 713.18,544.60 713.18,544.60 713.18,544.60 713.17,544.60 713.17,544.60 713.16,544.59 713.15,544.61 713.15,544.59 713.15,544.60 713.16,544.59 713.15,544.60 713.15,544.60 713.15,544.60 713.15,544.59 713.15,544.59 713.16,544.61 713.15,544.60 713.15,544.60 713.15,544.60 713.16,544.59 713.15,544.60 713.15,544.60 713.15,544.60 713.15,544.60 713.16,544.60 713.15,544.60 713.16,544.60 713.16,544.60 713.16,544.59 713.17,544.59 713.17,544.60 713.17,544.60 713.18,544.60 713.18,544.60 713.18,544.60 713.18,544.60 713.18,544.59 713.18,544.59 713.17,544.60 713.17,544.60 713.17,544.59 713.18,544.60 713.18,544.60 713.18,544.59 713.18,544.60 713.18,544.60 713.18,544.61 713.18,544.59 713.18,544.60 713.18,544.60 713.18,544.60 713.18,544.60 713.18,544.59 713.18,544.60 713.18,544.59 713.17,544.60 713.17,544.60 713.18,544.59 713.18,544.60 713.18,544.60 713.18,544.60 713.18,544.59 713.18,544.59 713.18,544.60 713.18,544.59 713.17,544.59 713.17,544.60 713.17,544.60 713.17,544.60 713.18,544.60 713.18,544.61 713.18,544.60 713.17,544.60 713.18,544.59" fill="none" stroke="#bc4b2f" stroke-width="2.6" vector-effect="non-scaling-stroke"/>
<circle cx="720.58" cy="511.57" r="5.5" fill="#0b6bcb" stroke="#ffffff" stroke-width="2"/>
<circle cx="713.63" cy="544.61" r="5.5" fill="#0b6bcb" stroke="#ffffff" stroke-width="2"/>
<circle cx="721.27" cy="510.87" r="5.5" fill="#bc4b2f" stroke="#ffffff" stroke-width="2"/>
<circle cx="713.18" cy="544.59" r="5.5" fill="#bc4b2f" stroke="#ffffff" stroke-width="2"/>
<text x="576.00" y="630" text-anchor="middle" font-family="Arial, sans-serif" font-size="15" fill="#425568">X [m]</text>
<text x="22" y="342.00" transform="rotate(-90 22 342.00)" text-anchor="middle" font-family="Arial, sans-serif" font-size="15" fill="#425568">Y [m]</text>
<rect x="760" y="18" width="292" height="82" rx="10" fill="#ffffff" stroke="#d8e3ef"/>
<line x1="780" y1="42" x2="816" y2="42" stroke="#0b6bcb" stroke-width="4"/>
<text x="826" y="47" font-family="Arial, sans-serif" font-size="15" fill="#0b6bcb">GLIM reference</text>
<line x1="780" y1="68" x2="816" y2="68" stroke="#bc4b2f" stroke-width="4"/>
<text x="826" y="73" font-family="Arial, sans-serif" font-size="15" fill="#bc4b2f">lidarslam aligned</text>
<text x="780" y="92" font-family="Arial, sans-serif" font-size="13" fill="#425568">RMSE 0.457 m, median 0.395 m, max 1.078 m</text>
<text x="780" y="108" font-family="Arial, sans-serif" font-size="13" fill="#425568">Path lengths: GLIM 1077.12 m, lidarslam 1077.58 m</text>
</svg>